<?xml version="1.0" encoding="utf-8"?>
<!-- Generator: Adobe Illustrator 19.0.0, SVG Export Plug-In . SVG Version: 6.00 Build 0)  -->
<svg version="1.1" id="Camada_1" xmlns="http://www.w3.org/2000/svg" xmlns:xlink="http://www.w3.org/1999/xlink" x="0px" y="0px"
	 viewBox="0 0 612 792" style="enable-background:new 0 0 612 792;" xml:space="preserve">
<style type="text/css">
	.st0{fill:#FFFFFF;}
	.st1{fill:#151515;}
	.st2{fill:#497CB8;}
	.st3{fill:#375A85;}
	.st4{fill:#84A7D2;}
	.st5{fill:#487CB8;}
	.st6{fill:#FAE7A9;}
	.st7{fill:#FCEED6;}
	.st8{fill:#84A7D3;}
	.st9{fill:#F9E7AA;}
	.st10{fill:#365A85;}
	.st11{fill:#D6D34F;}
	.st12{fill:#F9EC75;}
	.st13{fill:#497CB7;}
	.st14{fill:#F7E5AA;}
	.st15{fill:#F8E6A9;}
	.st16{fill:#FBEDD6;}
	.st17{fill:#FBEDD7;}
	.st18{fill:#FBFBFB;}
	.st19{fill:#F3E3AA;}
	.st20{fill:#EFE679;}
	.st21{fill:#EAE0AC;}
	.st22{fill:#E4DBAD;}
	.st23{fill:#191817;}
	.st24{fill:#161512;}
	.st25{fill:#201F17;}
	.st26{fill:#2B2924;}
	.st27{fill:#272318;}
	.st28{fill:#F8F8F8;}
</style>
<g id="XMLID_4_">
	<path id="XMLID_224_" class="st0" d="M603.6,657c-195.9,0-391.9,0-587.8,0c0-200.7,0-401.4,0-602.2c195.9,0,391.9,0,587.8,0
		C603.6,255.5,603.6,456.2,603.6,657z M406.4,633.3c13.2-2.1,26.6-3.7,39.7-6.4c9.8-2,19.4-5.4,29-8.2c3.7-0.5,7.5-0.9,11.6-1.4
		c-3.8-8.8-7.3-16.9-11-25.5c2.7-0.1,4.1-0.3,5.5-0.3c10.5,0.2,21,0.1,31.5,0.8c7.2,0.5,11.6-2.4,14.1-8.9c1.5-4,3.4-7.8,5.2-11.6
		c1.6-3.5,1.8-6.9,0.1-10.4c-2.3-4.9-4.9-9.7-7.1-14.7c-0.5-1.2-0.6-3.4,0.1-4.1c9.7-9.6,16.1-21.4,22.4-33.3
		c11.4-21.5,21.8-43.4,28.4-66.9c1.6-5.9,2.4-11.8-1.6-17.2c-11-14.7-21.4-29.8-33-43.9c-30.3-36.7-69.5-60.8-113.6-77.5
		c-2.4-0.9-4.8-1.9-7.6-3c1.1-1.5,1.7-2.5,2.4-3.4c3.6-4.3,7.3-8.4,10.6-12.9c2.3-3.1,4.8-4.6,8.7-5.3c17.4-3.1,27.1-23,18.8-38.5
		c-1.5-2.7-1.3-4.8,0-7.4c6.9-13.2,11.8-27,13.9-41.7c2.1-14,2.9-28.1-3.6-41.4c-4.9-10.1-10.2-20.2-19.6-26.6
		c-6.8-4.6-12-9.8-15.5-17.1c-3.6-7.6-9.6-12.3-18.2-13c-8.8-0.8-16.4-4-22.4-10.6c-0.9-1-2.1-1.6-3.2-2.3
		c-7.7-4.7-15.8-3.8-22.2,2.4c-2.3,2.2-4.5,4.6-6.5,7c-3.3,3.9-7,6.8-12.4,7.1c-3.7,0.2-7.4,0.7-11.1,0.7c-8.7,0-15.2,4-20.5,10.6
		c-2.3,2.8-4.7,5.4-7.2,8c-3.8,4-8.6,4.5-13.6,3.7c-5.1-0.8-7.4-5.1-5.6-10.1c0.9-2.6,2.1-5,3.3-7.9c-1,0-1.5-0.2-2,0
		c-11.5,4.7-25,14.8-21.9,32.4c1.5,8.4,1.2,15.7-1.8,23.6c-3.2,8.4,0.4,16.4,4.5,23.9c1.3,2.4,2.1,4.7,0.9,7.5
		c-10.7,24.2-11.6,49.3-6.2,74.9c3.8,17.8,10.4,34.3,24.5,46.8c0.7,0.6,1.1,1.6,2,2.8c-1.9,0.4-3.2,0.9-4.6,1.1
		c-15.9,1.4-31.7,2.9-47.6,4.2c-17.8,1.5-35.6,1.7-53.1-2.6c-13.1-3.2-25.9-7.2-38.7-11.4c-2.4-0.8-4.2-3.6-6.1-5.7
		c-2.5-2.8-4.5-6.3-7.4-8.7c-4.7-4-10-7.4-15-11.2c-9.2-7.1-12-17.3-8.5-28.4c2.7-8.6,5.6-17.2,5.1-26.4c-0.3-5.1-2.7-8.6-7.5-10.1
		c-6.9-2.3-13.8-0.8-20.1,1.9c-13.1,5.8-17.5,17.4-18.8,30.5c-1.1,10.4,1.1,20.3,5.4,29.8c2.3,5.1,0.7,7.4-4.8,7.9
		c-5.1,0.5-10.3,0.8-15.4,1.6c-7.3,1.1-14,3.4-17.5,10.7c-4,8.4-2.7,16.4,2.9,23.5c2.8,3.6,3,6.2,0.7,10.1c-6.4,11-4.6,18,5.8,25.1
		c2.2,1.5,2.9,2.7,1.5,5.1c-5.1,8.2-2.6,17.3,3.1,23.4c7.2,7.7,16,12.8,26.5,14.5c12.3,2,24.7,3.7,37.1,5.3
		c24.3,3.2,48.7,3.7,72.8-0.3c19.7-3.3,39.1-8.6,58.7-13.1c1.5-0.3,3-0.5,4.5-0.8c0.2,1,0.4,1.5,0.4,2c0.1,1.3,0.1,2.7,0.1,4
		c0.6,32.3,0.9,64.6,5.9,96.6c2.9,18.3,5.1,36.8,7.3,55.2c2.3,19.4,4.3,38.8,6.2,58.2c0.6,5.4,3.1,8,9,8.3c2.7,0.8,5.6,1.3,8.2,2.4
		c4.5,1.8,8.8,3.9,13.2,5.9c3.2,1.3,6.2,3.2,9.5,3.8c13.9,2.8,27.7,5.7,41.8,7.7C373.3,636.5,389.9,635.4,406.4,633.3z"/>
	<path id="XMLID_209_" class="st1" d="M284.2,614.4c-5.9-0.3-8.4-2.9-9-8.3c-2-19.4-3.9-38.8-6.2-58.2c-2.2-18.4-4.4-36.9-7.3-55.2
		c-5.1-32.1-5.4-64.3-5.9-96.6c0-1.3-0.1-2.7-0.1-4c0-0.5-0.2-1-0.4-2c-1.6,0.3-3.1,0.5-4.5,0.8c-19.5,4.4-38.9,9.8-58.7,13.1
		c-24.1,4-48.5,3.5-72.8,0.3c-12.4-1.6-24.8-3.3-37.1-5.3c-10.4-1.7-19.3-6.7-26.5-14.5c-5.7-6.1-8.2-15.2-3.1-23.4
		c1.5-2.4,0.7-3.7-1.5-5.1c-10.4-7.1-12.1-14.1-5.8-25.1c2.3-3.9,2.1-6.6-0.7-10.1c-5.6-7.1-6.9-15.1-2.9-23.5
		c3.5-7.3,10.2-9.6,17.5-10.7c5.1-0.8,10.3-1.1,15.4-1.6c5.5-0.5,7.1-2.8,4.8-7.9c-4.2-9.5-6.4-19.4-5.4-29.8
		c1.3-13.1,5.6-24.7,18.8-30.5c6.4-2.8,13.2-4.2,20.1-1.9c4.8,1.6,7.2,5,7.5,10.1c0.5,9.2-2.3,17.8-5.1,26.4
		c-3.5,11.1-0.7,21.3,8.5,28.4c4.9,3.8,10.2,7.2,15,11.2c2.9,2.4,4.8,5.9,7.4,8.7c1.9,2.1,3.7,5,6.1,5.7
		c12.8,4.1,25.7,8.1,38.7,11.4c17.5,4.3,35.3,4.1,53.1,2.6c15.9-1.3,31.7-2.8,47.6-4.2c1.4-0.1,2.8-0.6,4.6-1.1
		c-0.8-1.2-1.2-2.2-2-2.8c-14.1-12.5-20.7-29-24.5-46.8c-5.4-25.5-4.5-50.6,6.2-74.9c1.2-2.8,0.5-5.1-0.9-7.5
		c-4.1-7.5-7.7-15.5-4.5-23.9c3-7.9,3.2-15.2,1.8-23.6c-3.1-17.6,10.4-27.7,21.9-32.4c0.4-0.2,1,0,2,0c-1.2,2.9-2.4,5.4-3.3,7.9
		c-1.7,4.9,0.5,9.2,5.6,10.1c5,0.8,9.9,0.3,13.6-3.7c2.5-2.6,4.9-5.2,7.2-8c5.3-6.6,11.8-10.6,20.5-10.6c3.7,0,7.4-0.5,11.1-0.7
		c5.4-0.2,9.1-3.2,12.4-7.1c2.1-2.4,4.2-4.8,6.5-7c6.5-6.2,14.6-7,22.2-2.4c1.1,0.7,2.4,1.4,3.2,2.3c6,6.6,13.6,9.9,22.4,10.6
		c8.6,0.8,14.5,5.4,18.2,13c3.5,7.3,8.7,12.5,15.5,17.1c9.5,6.4,14.7,16.5,19.6,26.6c6.5,13.3,5.6,27.4,3.6,41.4
		c-2.2,14.7-7.1,28.6-13.9,41.7c-1.3,2.6-1.5,4.6,0,7.4c8.3,15.4-1.5,35.4-18.8,38.5c-3.9,0.7-6.4,2.2-8.7,5.3
		c-3.3,4.5-7.1,8.6-10.6,12.9c-0.7,0.9-1.4,1.9-2.4,3.4c2.8,1.1,5.2,2.1,7.6,3c44.1,16.7,83.3,40.8,113.6,77.5
		c11.7,14.1,22.1,29.2,33,43.9c4,5.4,3.2,11.2,1.6,17.2c-6.5,23.5-17,45.4-28.4,66.9c-6.3,11.8-12.7,23.7-22.4,33.3
		c-0.7,0.7-0.6,2.9-0.1,4.1c2.2,5,4.7,9.8,7.1,14.7c1.6,3.4,1.5,6.9-0.1,10.4c-1.8,3.8-3.7,7.7-5.2,11.6c-2.5,6.5-6.9,9.4-14.1,8.9
		c-10.5-0.7-21-0.6-31.5-0.8c-1.4,0-2.9,0.1-5.5,0.3c3.7,8.7,7.2,16.7,11,25.5c-4.2,0.5-7.9,1-11.6,1.4c-1.9-5-3.8-9.9-5.7-14.9
		c-4.8-12.9-9.6-25.9-14.5-38.8c-0.7-1.9-1.3-3.4-4.2-2.7c-15,3.7-30.1,7.1-45.2,10.6c-6.3,0.7-12.7,1.7-19,2.1
		c-18,1.1-36.2,2.1-54.1-1.2c-8.7-1.6-17.2-4.3-25.8-6.5c-9.5-3.8-19-7.6-29.2-11.6c0.8,6.9,1.6,12.8,2.3,18.7
		C281.2,587.8,282.7,601.1,284.2,614.4z M437.7,199.1c-0.3-0.3-0.6-0.6-0.8-0.8l-0.1,0.2c0,0,0.2-0.2,0.2-0.2
		c-1.6-1.6-3.3-3.2-4.9-4.7l0,0c-0.3-0.3-0.6-0.6-0.9-0.9l0,0c-0.9-1-1.7-2.1-2.7-2.9c-2.1-1.7-1.6-3,0.4-4.5
		c13.1,7.6,20,20.1,26.8,32.9c-0.6-4.6-1.3-9.1-3.1-13.2c-4.9-11.5-14.6-18.6-24.7-25.3c0-0.3-0.1-0.4-0.4-0.4
		c1.7-2.1,3.5-4.2,5.2-6.3l0,0c1.3-1.1,2.6-2.2,4-3.3c4.3-4,5.1-8.8,2.5-14c-2.6-5.2-6.5-8.4-12.6-7.7c-5.4,0.6-10.8,1.2-16,2.6
		c-6.7,1.8-12,1-16.6-4.8c-3.6-4.5-8.3-7.8-14.1-9.1c-0.6-0.3-1.2-0.6-1.8-0.7c-5.9-1.5-10.9,1.2-16.1,3.3c-4.5,1.9-9.2,2.8-14,1.3
		c-2.9-0.9-5.5-2.5-8.3-3.9c-4.7-2.4-9-2.1-12.6,1.9c-4,4.3-7.8,8.7-11.7,13.1c-3.9,4.4-8.2,8.5-14.1,9.9c-4.3,1-6.5,4.1-8.6,7.6
		c-15,24.9-22.1,51.6-17.5,80.8c4.4,28.3,16.6,52,40.7,68.5c9.7,6.7,20.2,11.7,32,13.6c6.5,0.7,12.9,1.4,19.4,2
		c0.1,0.3,0.2,0.6,0.2,0.8c-5.6,1.5-11.3,3-17.1,4.5c16.6,7.7,53.6-8.3,55.8-26.7c-14.1,5-14.1,5-18.1,3.9c0.4-0.6,0.8-1.1,1.2-1.5
		c1-0.9,2-1.8,3.1-2.5c12.8-8,23.2-18.7,31.7-31c3.4-4.9,6.9-7.5,13.1-8.2c14.2-1.6,23.6-20,13.4-32.2c-1.4-1.7-2.6-3.6-4-5.4
		c1.9-1.2,3.5-2.3,5.2-3.3c-5.8-10.4-11.8-20.2-21.4-27.3c-1.5-1.1-1.8-3.8-2.7-5.8c2.9,1.4,5.9,2.7,8.8,4.1
		c0.3,0.2,0.5,0.5,0.8,0.7c5.7,7.6,11.3,15.2,17.6,23.5c-3.2-10.4-8-18.9-15.1-26.1C439.2,200.7,438.5,199.9,437.7,199.1l-0.2,0.1
		L437.7,199.1z M109.3,259.2c0.6-3.4,1.2-6.8,1.9-10.2c1.1-5.9,2.5-11.7,3.5-17.6c1-5.8-1-9.7-5.3-10.9
		c-10.9-3.1-24.2,3.1-28.6,13.5c-6.3,14.9-3.7,29,3.7,42.8c1.7,5.3,5.1,8.6,10.6,10.6c7,2.6,13.9,6.1,20.3,10.1
		c12.3,7.7,13.7,24.3,3.3,34.2c-0.1,0.1-0.1,0.5-0.1,0.7c1.8,2.2,3.7,4.2,5.4,6.5c5.5,7.4,5.6,13.7-0.1,21c-1.9,2.4-1.8,4-0.4,6.6
		c4.2,7.3,2.7,13.6-4.3,18.3c-2.8,1.8-6.2,3.5-9.5,3.8c-9.6,1-19.3,1.3-29,1.8c-1.8,0.1-3.7,0-5.5,0c0.8,1.5,1.5,2,2.3,2.4
		c0.8,0.4,1.7,0.7,2.6,0.9c9.5,2.4,19.1,3,28.8,1.5c8.8-1.4,16.4-4.9,22.2-12c7.5-9.2,10.1-20,10.7-32.1c-2.1,1.1-3.7,1.9-5.3,2.8
		c1.1-3.6,2.8-6.7,4.5-9.8c4.4-7.8,7.2-16,4.9-25.1c-3.4-13.8-10.7-25.2-22.2-33.5C115,278.6,109.5,270.5,109.3,259.2z M390.8,131.2
		c0,0.2,0.1,0.3,0.3,0.3c3.8,4.6,7.6,9.2,11.3,13.8c1.6,2,3.5,2.5,6,1.7c5.6-1.9,11.3-4,17-5.5c9.3-2.3,17.5,1.4,21.7,9.2
		c4.6,8.7,3.4,14.7-4.7,22.2c-2.2,2-4.5,3.9-7,6c11.4,9.3,21.3,19.2,24.4,34.2c5.6-13,8.8-26.2,8.7-39.8
		c-0.2-17.5-7.5-32.3-19.8-44.3c-4.8-4.7-9.5-9.1-13-14.9c-3.8-6.2-8.5-12-15.9-13.7c-11.4-2.5-21.5-7.3-30.4-14.9
		c-1-0.8-2.3-1.3-3.5-1.9c-3.6-1.7-6.9-1.5-10,1.2c-3.8,4.9-7.8,9.7-11.5,14.6c-5.1,6.7-7.1,7.8-14.8,4.4
		c-9.1-3.9-16.5-1.8-23.2,4.8c-4.2,4.1-8.4,8.2-12.7,12.1c-5.1,4.7-11.2,6.6-18,4.7c-6-1.7-9.6-5.7-10.7-12.2
		c-1.1,1.1-1.9,1.7-2.5,2.5c-8.1,10.1-6.6,29.8,3,38.6c2.7,2.5,5.7,3.7,9.4,3.4c6.6-0.5,11.3-4.1,15.6-8.7c3.2-3.5,6.3-7.2,9.6-10.7
		c9.9-10.3,14.2-10.9,26.8-4c0.1,0.1,0.2,0.1,0.3,0.2c2.9,2.2,5.8,2.1,8.9,0.3c5.4-3.1,11-5.9,16.4-9.1c4.3-2.5,8.3-2.4,12.2,0.6
		c2,1.5,4,3,6.1,4.5L390.8,131.2z M256.2,377.5c1.1-4.1,4.5-4.1,8.1-4.7c-0.1,2.2-0.3,4-0.3,5.9c-0.4,11.9-1.5,23.9-1,35.8
		c1,22.6,2.8,45.1,4.5,67.6c0.1,1.4,1,3.1,2,4c10.3,8.9,22.5,14.6,34.7,20c0.3,0.1,0.7-0.2,1.2-0.3c-0.1-1.4-0.2-2.7-0.2-4
		c-0.3-16.8-1.2-33.5-0.7-50.3c0.8-27.7,3.7-55.2,10-82.2c0.6-2.8-0.1-4.4-2-6.2c-5.7-5.4-9.1-12.3-9.8-20
		c-0.6-7.4,0.1-14.9,0.3-23.1c-2,0-5-0.2-8,0c-17.9,1.4-35.8,2.9-53.7,4.4c-19.7,1.7-39.3,0.6-58.8-2.5c-8.1-1.3-16.1-2.8-24.8-4.2
		c1.8,8.4,3.5,16.4,5.1,24.4c-0.1,2.8-0.3,5.6-0.2,8.3c0.6,14.5-3.8,27.2-13.7,37.9c-3.8,4.1-7.8,8.1-11.6,12.1
		c0.2,0.3,0.3,0.5,0.3,0.6c0.8,0.1,1.6,0.2,2.4,0.3c37.1,1.9,73.4-3.3,108.8-14.2C256.5,384.9,256.4,384.7,256.2,377.5z
		 M414.2,513.8c11.6-3.3,23.2-6.6,34.7-10.1c1.3-0.4,2.7-2.5,3-4c1.4-8.8,2.1-17.6,3.8-26.3c2.5-12.7,5.6-25.4,8.5-38
		c0.5-2.3,1.1-4.2-1.8-5.6c-8.8-4.3-17.5-8.8-26.3-13.2c-1.7-1.3-3.5-2.6-5.2-3.9c0.2-0.4,0.4-0.8,0.5-1.2c2.5,0.6,5.1,1,7.4,2
		c18.7,7.7,37.2,15.6,55.9,23.2c4.1,1.7,8.6,2.3,13.1,3.5c-0.6,1.2-0.9,2-1.3,2.6c-14.4,18.9-23.8,40.5-33.4,62
		c-1.1,2.5-1.6,4.7,0.3,7c0.9,1.6,1.7,3.2,2.8,4.7c6.5,8.5,13.2,17.2,24.7,18.6c7.3,0.9,14.8,0.6,22.1,0.4c1.2,0,2.6-1.7,3.3-2.9
		c2.3-3.7,4.4-7.6,6.6-11.4c11.9-20.1,23.5-40.4,32.2-62.1c2.6-6.5,5-13.2,6.3-20.1c1.7-8.9-3.9-15.6-8.6-22.4
		c-0.2-0.4-0.3-0.7-0.6-1.1c-24.9-33.8-53.8-63.4-90.1-85c-9-5.3-18.4-9.8-28-14.9c-0.3,1.5-0.5,2.1-0.6,2.7
		c-1.7,16.5-9.7,29.6-21.7,40.5c-12.3,11.1-26.8,17.9-43.1,21.2c-7.3,1.5-8.4,3.2-9.2,10.7c-1.6,15.6-3.5,31.2-4.9,46.8
		c-2.3,25.1-2.4,50.2,0,75.3c0.3,2.8,1.5,4.3,4.4,4.6C384.4,519,399.3,516.7,414.2,513.8z M268.2,494.3c2.6,17,5.1,33.4,7.8,49.7
		c0.3,1.5,1.6,3.3,2.9,4.1c22.1,13.1,46.2,19.3,71.6,20.8c25.4,1.5,50.5-1.7,75.1-7.9c9.1-2.3,18-5.3,26.4-7.8
		c-0.4-14.9-0.8-28.9-1.2-42.4c-12.1,3.1-24,6.6-36.2,9.1c-15.3,3.1-30.8,6-46.6,3.7c-6-0.9-9.1-3.8-9.5-9.9
		c-0.7-11-1.6-22-1.7-33.1c-0.5-30.7,2.6-61.1,7-91.4c1.6-11.3,3.7-13.6,13.3-15.4c21.1-4.1,37.7-15.4,50.1-32.7
		c6-8.3,9.4-17.7,10.3-28.2c-7-2.9-13.8-5.7-21.1-8.7c-1.1,2.6-2.1,4.9-2.9,7.2c-2.6,7.8-6.6,14.9-12.4,20.6
		c-12.6,12.3-28.1,18.1-45.7,17.1c-11.2-0.7-21.5-4.6-27.3-14.7c-4.1-7.1-10.9-7.9-18.1-11.4c-0.9,5.4-2.7,10.2-2.3,14.7
		c0.7,7.9,3.7,15.3,9.6,21c4.1,4,4.4,8.4,3.3,13.5c-5.9,27.1-9.4,54.5-9.8,82.2c-0.2,17,0.3,34,0.7,51.1c0.2,7.4-4,8-9.6,6.4
		c-3.3-0.9-6.4-2.7-9.4-4.3C284.6,503.5,276.9,499.1,268.2,494.3z M513.6,565.4c0.9,2.6,1.8,4.8,2.4,7.1c0.5,2.2-3.4,5.9-5.5,5.4
		c-4.9-1.1-12-11.1-10.3-15.9c2-5.9,5.3-11.3,8.2-17.4c-16.2,0-28.4-8.8-38.8-22.1c-3.3,6.4-7.2,12.4-8.2,18.9
		c-1.9,12.8,2.5,24.9,6.8,36.8c1.7,4.5,4.8,6.8,9.5,7c11.9,0.5,23.9,1.1,35.8,1.4c1.7,0,4-1.3,5.2-2.8c8.3-10.1,8.1-21.8-0.4-33.6
		c-5.3,1.1-9,4.3-11.8,8.7c-2.6,4.1-2.4,5.5,1.4,9.1C509.7,567.3,511.3,566.5,513.6,565.4z M76.7,291c-5.3,0.4-10.6,0.6-15.9,1.3
		c-2.9,0.4-6.1,1.4-8.5,3c-7.9,5.2-8.8,14-3.2,23.6c1.6,2.8,3.2,3.7,6.6,3.1c11.5-2.2,23.1-4.5,34.8-1.9c6.2,1.4,12.1,4,18.1,5.9
		c5,1.6,8.2-0.3,9.4-5.4c1.8-7.4-0.7-14.3-7-18.5C100.6,295.2,89.6,290.3,76.7,291z M74.3,325.2c-5.7,0.7-11.4,1-16.9,2.2
		c-2.5,0.6-5.8,2.5-6.7,4.7c-2.5,6.5-1.9,13.1,2.4,18.9c1.5,2,3.3,3.8,6.4,3c13.1-3.2,26.1-2.1,39.1,0.8c5.8,1.3,11.7,2.4,17.5,3.2
		c1.1,0.2,2.9-0.7,3.6-1.7c3.3-4.9,3.1-10.6-0.8-15.2c-2.2-2.6-5-4.8-7.9-6.5C99.6,328.4,87.3,325.7,74.3,325.2z M89.7,386.4
		c0.1-0.3,0.1-0.7,0.2-1c10.3,0,17.3-1.4,21.5-4.3c3.1-2.1,6.2-5.1,5.3-8.6c-0.6-2.5-3.9-4.9-6.6-6.1c-12.8-5.9-26.6-7.9-40.6-8.2
		c-5.4-0.1-10.7,1.2-13,7.2c-2.5,6.6,0.7,13.6,8.3,16C73,383.7,81.5,384.7,89.7,386.4z M461.2,521.2c0.5,0.1,1,0.1,1.5,0.2
		c0.9-2.1,2.8-4.5,2.4-6.4c-1.1-5.3,1.1-9.7,3.2-14c8.9-18.7,17.9-37.3,29.7-54.4c1.6-2.3,1.5-3.6-1.6-4.6
		c-6.5-1.9-12.9-3.9-19.2-6.4c-3.3-1.3-4.6-0.5-5.2,2.7c-2,9.3-4,18.7-6.1,28c-3.6,16-5.9,32.1-5.1,48.6
		C460.8,517,461,519.1,461.2,521.2z M117.9,399.6c0.1,0.4,0.1,0.8,0.2,1.2c3.6,0,7.7,1.2,10.6-0.2c20.5-9.7,33.8-36.3,29.7-58.6
		c-1-5.6-2.5-11.2-3.8-16.8c-1.4,3-1.7,5.9-2.7,8.5c-2.4,6.4-5.2,12.6-4.1,19.8c0.3,2.4-0.5,5-1.2,7.4
		C141.8,377.4,134.2,391.7,117.9,399.6z M279.9,155.6c-7.2,4.5-4.8,17.4,0.3,23.5c3.2-5.5,6.3-10.9,9.6-16.6
		C286.4,160.1,283.1,157.8,279.9,155.6z"/>
	<path id="XMLID_208_" class="st2" d="M306.6,567.4c8.6,2.2,17.1,5,25.8,6.5c17.9,3.2,36,2.3,54.1,1.2c6.4-0.4,12.7-1.4,19-2.1
		c0.3,1.4,0.8,2.8,0.7,4.2c-0.4,5.7-1.2,11.3-1.4,17c-0.2,11.8-0.2,23.7-0.1,35.5c0,1.2,1,2.4,1.6,3.6c-16.5,2.1-33,3.2-49.5,0.9
		c-14-1.9-27.9-4.9-41.8-7.7c-3.3-0.7-6.3-2.5-9.5-3.8c0.1-14.8,0.2-29.7,0.4-44.5C306.1,574.6,306.4,571,306.6,567.4z"/>
	<path id="XMLID_207_" class="st3" d="M406.4,633.3c-0.5-1.2-1.6-2.4-1.6-3.6c-0.1-11.8-0.2-23.7,0.1-35.5c0.1-5.7,1-11.3,1.4-17
		c0.1-1.4-0.5-2.8-0.7-4.2c15.1-3.5,30.2-6.9,45.2-10.6c2.9-0.7,3.5,0.8,4.2,2.7c4.8,12.9,9.6,25.9,14.5,38.8
		c1.9,5,3.8,9.9,5.7,14.9c-9.7,2.8-19.2,6.2-29,8.2C432.9,629.6,419.6,631.2,406.4,633.3z"/>
	<path id="XMLID_206_" class="st4" d="M306.6,567.4c-0.2,3.6-0.6,7.2-0.6,10.9c-0.2,14.8-0.3,29.7-0.4,44.5c-4.4-2-8.8-4.1-13.2-5.9
		c-2.6-1.1-5.4-1.6-8.2-2.4c-1.5-13.3-3-26.7-4.5-40c-0.7-5.9-1.4-11.8-2.3-18.7C287.6,559.8,297.1,563.6,306.6,567.4z"/>
	<path id="XMLID_205_" class="st5" d="M473.4,511.6c-1.9-2.3-1.4-4.4-0.3-7c9.6-21.5,19-43.1,33.4-62c0.5-0.6,0.7-1.4,1.3-2.6
		c-4.6-1.2-9.1-1.9-13.1-3.5c-18.7-7.6-37.3-15.5-55.9-23.2c-2.3-1-4.9-1.3-7.4-2c-0.2,0.4-0.4,0.8-0.5,1.2c1.7,1.3,3.5,2.6,5.2,3.9
		c-0.5,2.6-1,5.1-1.6,7.7c-3.6,16.1-7.2,32.2-10.8,48.3c-3.1,13.8-6.2,27.5-9.4,41.3c-14.9,3-29.8,5.3-45.1,3.6
		c-2.9-0.3-4.1-1.8-4.4-4.6c-2.4-25.1-2.3-50.2,0-75.3c1.5-15.6,3.3-31.2,4.9-46.8c0.8-7.5,1.9-9.2,9.2-10.7
		c16.3-3.3,30.8-10.1,43.1-21.2c12-10.9,20.1-24,21.7-40.5c0.1-0.6,0.3-1.2,0.6-2.7c9.6,5,19.1,9.5,28,14.9
		c36.3,21.6,65.2,51.3,90.1,85c0.2,0.3,0.4,0.7,0.6,1.1c-0.6,3-0.7,6.1-1.9,8.8c-3.2,7.4-6.2,15-10.5,21.7
		c-5,7.7-10.7,15.3-17.4,21.5c-8.8,8.2-18.6,15.3-28.4,22.3C494.6,498.1,483.9,504.7,473.4,511.6z"/>
	<path id="XMLID_204_" class="st6" d="M268.2,494.3c8.7,4.8,16.4,9.2,24.2,13.4c3,1.6,6.1,3.4,9.4,4.3c5.6,1.6,9.8,1,9.6-6.4
		c-0.4-17-1-34.1-0.7-51.1c0.4-27.7,3.9-55.1,9.8-82.2c1.1-5.1,0.9-9.5-3.3-13.5c-5.8-5.7-8.9-13.1-9.6-21
		c-0.4-4.5,1.3-9.2,2.3-14.7c7.2,3.5,14,4.3,18.1,11.4c5.9,10.1,16.1,14,27.3,14.7c17.6,1.1,33-4.7,45.7-17.1
		c5.8-5.7,9.8-12.8,12.4-20.6c0.8-2.3,1.8-4.6,2.9-7.2c7.2,3,14.1,5.8,21.1,8.7c-0.9,10.5-4.3,19.9-10.3,28.2
		c-12.5,17.3-29,28.5-50.1,32.7c-9.6,1.9-11.6,4.1-13.3,15.4c-4.3,30.3-7.5,60.7-7,91.4c0.2,11,1,22,1.7,33.1c0.4,6.1,3.5,9,9.5,9.9
		c15.8,2.3,31.3-0.6,46.6-3.7c12.2-2.5,24.1-6,36.2-9.1c0.4,13.5,0.8,27.5,1.2,42.4c-8.5,2.5-17.4,5.6-26.4,7.8
		c-24.6,6.2-49.7,9.4-75.1,7.9c-25.4-1.5-49.6-7.6-71.6-20.8c-1.4-0.8-2.7-2.6-2.9-4.1C273.3,527.7,270.9,511.3,268.2,494.3z"/>
	<path id="XMLID_197_" class="st7" d="M347.9,332c-11.8-1.9-22.3-6.9-32-13.6c-24.1-16.5-36.3-40.3-40.7-68.5
		c-4.6-29.2,2.5-55.8,17.5-80.8c2.1-3.5,4.3-6.6,8.6-7.6c6-1.5,10.2-5.5,14.1-9.9c3.9-4.4,7.8-8.7,11.7-13.1c3.7-4,7.9-4.3,12.6-1.9
		c2.7,1.4,5.4,3,8.3,3.9c4.8,1.6,9.4,0.6,14-1.3c5.1-2.1,10.2-4.7,16.1-3.3c0.6,0.2,1.2,0.5,1.8,0.7c-4.1,4.3,0.3,8,1,11.9
		c1,5.3,2.9,10.4,4.4,15.5c-1.2-0.8-2.4-1.6-3.7-2.5c-2.2,1.7-4.3,3.4-6.7,5.3c7.3,2.8,13.4,6.8,17.7,13.1c-2.8,1.7-1.6,4.1-1.2,6.4
		c0.3,2.3,0.9,4.6,1.1,7c0.5,4.7,1,9.4,1,14.1c0.2,8.8,0.4,17.7-0.1,26.5c-0.4,7.1-1.4,14.2-2.6,21.2c-0.5,2.8,0,6.5-3.8,7.9
		c-0.3-2.2,0.2-5.3-1.1-6.4c-6.1-5.5-12.7-10.4-19.1-15.5c-0.2,2.7,0.2,4.6,0.7,6.5c0.8,3,0.1,5.1-3.2,6c-4.5,1.2-8.9,2.6-13.3,4
		c-15,5.1-30.2,5.3-45.5,1.3c-5.5-1.4-11.2-2.4-9.9-10.8c-3.2,3.1-6,5.9-8.3,9c-0.9,1.2-1.7,3.5-1.2,4.7c2.3,5.1,5,9.9,7.9,15.5
		c1.1-2.9,1.8-4.8,2.7-7.1c4,2.5,7.4,4.7,11,6.7c10.7,5.8,21.8,10.7,34.1,6.6c8.5-2.8,16.6-6.8,24.8-10.5c2.9-1.3,5.4-3.3,8.3-4.7
		c3.4-1.7,5.3-0.5,5.2,3.2c0,1.3-0.4,2.8,0.1,3.9c0.4,1,1.7,1.7,2.6,2.5c0,0.8,0.2,1.7-0.1,2.4c-3.7,7.2-6.7,14.9-11.4,21.4
		c-5.9,8.1-13.3,15.2-20,22.7c-1.3,1.5-2.8,2.8-3.9,4.5C347.3,329.9,347.8,331.1,347.9,332z M334.7,241.9c-1.8-2.7-3.5-5.4-5.3-8
		c-2.5-3.6-3-7.1-0.5-11.1c3.3-5.3,6.5-10.7,9.2-16.3c2.3-4.8,3.9-10,5.8-15c-0.5-0.3-1-0.6-1.5-0.8c-1.6,2-3.2,3.9-4.7,6
		c-4.9,7.1-9.3,14.5-14.6,21.3c-8,10.3-8.3,10.1-0.9,20.8C326.3,244.7,327.6,245.1,334.7,241.9z M362.3,198.6
		c10.1,5.1,19.7,9.9,29.2,14.7c2.7-9.8-2.6-18.3-12.2-19C373.4,193.8,367.9,195.3,362.3,198.6z M297.6,200.7c0.8,3.5,1,6,2.1,8.3
		c1.8,3.9,5.1,4.1,7.8,1c3.4-4,4.3-13.3,1.6-17.7c-2.2-3.7-5.4-4.2-7.7-0.5C299.6,194.6,298.7,198.1,297.6,200.7z M318.5,290.4
		c4.1,5.8,11.1,8.2,17.6,6.2c2.3-0.7,3.9-1.9,3.4-4.5c-0.5-2.6-2.3-3.3-4.7-3.1C329.5,289.5,324.2,289.9,318.5,290.4z M314.6,166.4
		c-0.9-1.1-2.1-2.6-3.3-3.9c-5.3,2.9-10.7,4.8-13.3,10.3C303.5,170.6,308.9,168.5,314.6,166.4z"/>
	<path id="XMLID_196_" class="st8" d="M162.9,342.2c-1.7-8-3.4-16-5.1-24.4c8.6,1.5,16.7,2.9,24.8,4.2c19.5,3.2,39.1,4.3,58.8,2.5
		c17.9-1.6,35.8-3,53.7-4.4c3-0.2,6,0,8,0c-0.2,8.2-0.9,15.7-0.3,23.1c0.7,7.7,4.1,14.5,9.8,20c1.9,1.8,2.6,3.4,2,6.2
		c-6.3,27-9.3,54.5-10,82.2c-0.5,16.7,0.4,33.5,0.7,50.3c0,1.3,0.1,2.6,0.2,4c-0.6,0.1-1,0.4-1.2,0.3c-12.3-5.5-24.4-11.2-34.7-20
		c-1.1-0.9-1.9-2.6-2-4c-1.6-22.5-3.5-45.1-4.5-67.6c-0.5-11.9,0.6-23.9,1-35.8c0.1-1.8,0.2-3.7,0.3-5.9c-3.6,0.6-7,0.6-8.1,4.7
		c-10.4-0.9-20.9-0.9-31.1-2.7c-17.4-3.2-33-11-47.2-21.6C172.9,349.4,167.9,345.8,162.9,342.2z"/>
	<path id="XMLID_192_" class="st9" d="M385.5,164.3c-1.5-5.2-3.5-10.3-4.4-15.5c-0.7-3.9-5.1-7.6-1-11.9c5.8,1.3,10.5,4.6,14.1,9.1
		c4.6,5.7,9.9,6.6,16.6,4.8c5.2-1.4,10.6-2,16-2.6c6.1-0.7,10.1,2.5,12.6,7.7c2.6,5.2,1.7,10-2.5,14c-1.7,0.6-4.4,0.1-4,3.3
		c0,0,0,0,0,0c-3.6,0.4-6.9,1.4-7.9,5.9c0.9,0.1,1.8,0.3,2.7,0.4c0.3,0,0.4,0.2,0.4,0.4c2,3.5-0.9,4.8-3.1,6.6
		c2,2.4,1.4,7.1,6.4,6.4c0,0,0,0,0,0c0.3,0.3,0.6,0.6,0.9,0.9c0,0,0,0,0,0c0.5,1.7,1,3.3,1.5,5l0,0c-1.7,1.2-4.1-2.7-5.6,0.7
		c0.9,2,1.2,4.6,2.7,5.8c9.5,7.2,15.5,17,21.4,27.3c-1.7,1.1-3.3,2.1-5.2,3.3c1.3,1.9,2.5,3.7,4,5.4c10.2,12.3,0.8,30.7-13.4,32.2
		c-6.2,0.7-9.7,3.2-13.1,8.2c-8.5,12.3-18.9,23-31.7,31c-1.1,0.7-2.1,1.6-3.1,2.5c-0.5,0.4-0.8,1-1.2,1.5c4,1.1,4,1.1,18.1-3.9
		c-2.3,18.4-39.3,34.4-55.8,26.7c5.8-1.5,11.4-3,17.1-4.5c-0.1-0.3-0.2-0.6-0.2-0.8c-6.5-0.7-12.9-1.4-19.4-2
		c-0.1-1-0.6-2.2-0.2-2.8c1.1-1.6,2.6-3,3.9-4.5c6.7-7.5,14.1-14.6,20-22.7c4.7-6.5,7.7-14.2,11.4-21.4c0.3-0.6,0.1-1.6,0.1-2.4
		c1.4-5,2.8-10,4.1-15.1c3.8-1.4,3.3-5.1,3.8-7.9c1.2-7,2.3-14.1,2.6-21.2c0.4-8.8,0.2-17.7,0.1-26.5c-0.1-4.7-0.6-9.4-1-14.1
		c-0.2-2.3-0.8-4.7-1.1-7c-0.3-2.3-1.5-4.7,1.2-6.4c1.3,1,2.6,2.1,4.5,3.6c-0.4-2.1-0.6-3.5-1-4.8
		C394.6,172.7,390.3,168.3,385.5,164.3z M443,228.6c-1.1-5.9-5.6-11.2-11.9-15.1c-2.2-1.3-3.4-0.3-4,1.7c0.7-0.6,1.4-1.2,2.1-1.7
		C434.1,218.8,439,224.1,443,228.6z M433.7,238.3c2.8-1.3,4-3.6,2.3-5.8c-1.9-2.6-4.3-5.2-7.1-6.6c-1.6-0.8-3.4,1.2-1.6,3.5
		C429.4,232.3,431.4,235.2,433.7,238.3z"/>
	<path id="XMLID_191_" class="st10" d="M473.4,511.6c10.5-6.9,21.2-13.5,31.4-20.8c9.8-7,19.6-14.1,28.4-22.3
		c6.7-6.2,12.4-13.8,17.4-21.5c4.4-6.7,7.3-14.3,10.5-21.7c1.2-2.7,1.3-5.9,1.9-8.8c4.7,6.8,10.2,13.5,8.6,22.4
		c-1.3,6.8-3.7,13.6-6.3,20.1c-8.7,21.7-20.3,42-32.2,62.1c-2.2,3.8-4.3,7.7-6.6,11.4c-0.8,1.2-2.2,2.9-3.3,2.9
		c-7.4,0.1-14.9,0.5-22.1-0.4c-11.5-1.5-18.2-10.2-24.7-18.6C475.1,514.9,474.3,513.2,473.4,511.6z"/>
	<path id="XMLID_190_" class="st11" d="M376,85c3-2.7,6.4-2.9,10-1.2c1.2,0.6,2.5,1,3.5,1.9c8.8,7.6,19,12.4,30.4,14.9
		c7.5,1.7,12.1,7.5,15.9,13.7c3.5,5.7,8.2,10.2,13,14.9c12.3,12,19.7,26.8,19.8,44.3c0.1,13.7-3,26.9-8.7,39.8
		c-3.1-14.9-13.1-24.8-24.4-34.2c2.5-2.1,4.8-4,7-6c8.1-7.6,9.3-13.5,4.7-22.2c-4.1-7.8-12.4-11.6-21.7-9.2
		c-5.8,1.4-11.4,3.5-17,5.5c-2.5,0.8-4.3,0.3-6-1.7c-3.7-4.6-7.6-9.2-11.3-13.8c0.1-0.2,0.2-0.4,0.2-0.6c-0.2,0.1-0.4,0.2-0.6,0.3
		c0,0-0.1-0.1-0.1-0.1C393.6,113.2,388.1,98.1,376,85z"/>
	<path id="XMLID_189_" class="st12" d="M376,85c12.1,13,17.6,28.2,14.7,46c-2-1.5-4.1-3-6.1-4.5c-4-3-7.9-3.1-12.2-0.6
		c-5.4,3.1-10.9,6-16.4,9.1c-3.1,1.7-6,1.9-8.9-0.3c-0.1-0.1-0.2-0.1-0.3-0.2c-12.5-6.9-16.8-6.3-26.8,4c-3.3,3.4-6.3,7.2-9.6,10.7
		c-4.2,4.6-9,8.2-15.6,8.7c-3.7,0.3-6.7-0.9-9.4-3.4c-9.5-8.8-11-28.5-3-38.6c0.6-0.8,1.5-1.5,2.5-2.5c1,6.5,4.7,10.6,10.7,12.2
		c6.9,1.9,12.9,0,18-4.7c4.3-4,8.5-8.1,12.7-12.1c6.7-6.5,14.1-8.7,23.2-4.8c7.7,3.3,9.7,2.3,14.8-4.4C368.2,94.7,372.1,89.9,376,85
		z"/>
	<path id="XMLID_188_" class="st13" d="M162.9,342.2c5,3.6,10,7.2,15,10.9c14.2,10.7,29.8,18.4,47.2,21.6
		c10.2,1.9,20.7,1.9,31.1,2.7c0.2,7.2,0.3,7.4-7.2,9.8c-35.5,10.9-71.7,16.1-108.8,14.2c-0.8,0-1.6-0.2-2.4-0.3
		c-0.1,0-0.1-0.2-0.3-0.6c3.8-4,7.8-8,11.6-12.1c9.9-10.7,14.3-23.4,13.7-37.9C162.6,347.8,162.8,345,162.9,342.2z"/>
	<path id="XMLID_187_" class="st10" d="M414.2,513.8c3.1-13.8,6.2-27.5,9.4-41.3c3.6-16.1,7.2-32.2,10.8-48.3
		c0.6-2.6,1.1-5.1,1.6-7.7c8.7,4.4,17.4,8.9,26.3,13.2c2.9,1.4,2.3,3.4,1.8,5.6c-2.9,12.7-6,25.3-8.5,38c-1.7,8.7-2.4,17.6-3.8,26.3
		c-0.2,1.5-1.7,3.6-3,4C437.3,507.2,425.7,510.4,414.2,513.8z"/>
	<path id="XMLID_186_" class="st14" d="M109.3,259.2c0.2,11.3,5.7,19.4,14.7,25.9c11.5,8.3,18.7,19.8,22.2,33.5
		c2.3,9.1-0.5,17.3-4.9,25.1c-1.7,3.1-3.4,6.2-4.5,9.8c1.6-0.8,3.1-1.6,5.3-2.8c-0.6,12.1-3.2,22.8-10.7,32.1
		c-5.8,7.1-13.4,10.6-22.2,12c-9.7,1.6-19.3,1-28.8-1.5c-0.9-0.2-1.8-0.6-2.6-0.9c-0.8-0.4-1.6-0.9-2.3-2.4c1.8,0,3.7,0.1,5.5,0
		c9.7-0.5,19.4-0.8,29-1.8c3.3-0.3,6.7-2,9.5-3.8c7-4.6,8.5-10.9,4.3-18.3c-1.4-2.5-1.6-4.1,0.4-6.6c5.8-7.3,5.7-13.6,0.1-21
		c-1.7-2.2-3.6-4.3-5.4-6.5c0-0.2,0-0.5,0.1-0.7c10.4-9.8,9-26.5-3.3-34.2c-6.4-4-13.2-7.5-20.3-10.1c-5.5-2-8.9-5.3-10.6-10.6
		c2.8-2.1,5.6-4.1,8.3-6.3c3.1-2.6,5.8-5.8,9.1-8.2C104.1,260.8,106.8,260.2,109.3,259.2z"/>
	<path id="XMLID_185_" class="st15" d="M513.6,565.4c-2.3,1.1-3.9,1.9-5.6,2.7c-3.8-3.7-4.1-5-1.4-9.1c2.8-4.4,6.6-7.6,11.8-8.7
		c8.5,11.8,8.7,23.5,0.4,33.6c-1.2,1.4-3.5,2.8-5.2,2.8c-11.9-0.2-23.9-0.8-35.8-1.4c-4.7-0.2-7.9-2.5-9.5-7
		c-4.4-11.9-8.7-24-6.8-36.8c1-6.5,4.9-12.6,8.2-18.9c10.3,13.3,22.6,22.1,38.8,22.1c-2.9,6.1-6.2,11.5-8.2,17.4
		c-1.7,4.8,5.4,14.8,10.3,15.9c2.1,0.5,6-3.2,5.5-5.4C515.5,570.2,514.5,568,513.6,565.4z"/>
	<path id="XMLID_184_" class="st16" d="M76.7,291c12.9-0.6,23.9,4.2,34.3,11.2c6.3,4.2,8.8,11.1,7,18.5c-1.2,5-4.4,6.9-9.4,5.4
		c-6.1-1.9-12-4.5-18.1-5.9c-11.7-2.6-23.3-0.3-34.8,1.9c-3.4,0.6-5-0.3-6.6-3.1c-5.6-9.6-4.6-18.4,3.2-23.6c2.4-1.6,5.6-2.6,8.5-3
		C66,291.5,71.4,291.4,76.7,291z"/>
	<path id="XMLID_183_" class="st16" d="M74.3,325.2c13,0.4,25.4,3.2,36.7,9.6c2.9,1.7,5.7,3.9,7.9,6.5c3.9,4.5,4,10.2,0.8,15.2
		c-0.6,1-2.5,1.8-3.6,1.7c-5.9-0.9-11.7-1.9-17.5-3.2c-13-2.9-26-4-39.1-0.8c-3.1,0.7-4.9-1-6.4-3c-4.3-5.8-4.9-12.4-2.4-18.9
		c0.8-2.2,4.2-4.1,6.7-4.7C62.9,326.2,68.6,325.9,74.3,325.2z"/>
	<path id="XMLID_182_" class="st7" d="M109.3,259.2c-2.5,1-5.3,1.6-7.4,3.1c-3.3,2.4-6,5.6-9.1,8.2c-2.6,2.2-5.5,4.2-8.3,6.3
		c-7.4-13.7-10-27.9-3.7-42.8c4.4-10.4,17.7-16.6,28.6-13.5c4.3,1.2,6.3,5.2,5.3,10.9c-1,5.9-2.3,11.7-3.5,17.6
		C110.5,252.4,109.9,255.8,109.3,259.2z"/>
	<path id="XMLID_181_" class="st17" d="M89.7,386.4c-8.3-1.6-16.7-2.6-24.7-5.1c-7.7-2.3-10.8-9.4-8.3-16c2.2-6,7.5-7.3,13-7.2
		c14,0.3,27.8,2.3,40.6,8.2c2.7,1.2,5.9,3.7,6.6,6.1c0.9,3.6-2.2,6.5-5.3,8.6c-4.2,2.9-11.3,4.3-21.5,4.3
		C89.9,385.7,89.8,386,89.7,386.4z"/>
	<path id="XMLID_180_" class="st18" d="M461.2,521.2c-0.2-2.1-0.5-4.1-0.6-6.2c-0.7-16.4,1.5-32.6,5.1-48.6c2.1-9.3,4.2-18.6,6.1-28
		c0.7-3.3,2-4,5.2-2.7c6.3,2.4,12.8,4.5,19.2,6.4c3.1,0.9,3.2,2.3,1.6,4.6c-11.9,17.1-20.8,35.7-29.7,54.4c-2.1,4.3-4.3,8.7-3.2,14
		c0.4,1.9-1.5,4.2-2.4,6.4C462.2,521.3,461.7,521.2,461.2,521.2z"/>
	<path id="XMLID_179_" class="st19" d="M117.9,399.6c16.3-7.9,23.9-22.2,28.6-38.6c0.7-2.4,1.6-5,1.2-7.4c-1-7.2,1.7-13.4,4.1-19.8
		c1-2.6,1.3-5.5,2.7-8.5c1.3,5.6,2.7,11.1,3.8,16.8c4.1,22.3-9.2,48.9-29.7,58.6c-2.9,1.4-7,0.2-10.6,0.2
		C118,400.4,117.9,400,117.9,399.6z"/>
	<path id="XMLID_178_" class="st20" d="M279.9,155.6c3.2,2.2,6.5,4.5,9.9,6.9c-3.3,5.7-6.4,11.2-9.6,16.6
		C275.2,173,272.8,160.1,279.9,155.6z"/>
	<path id="XMLID_177_" class="st21" d="M431.3,192.8c-5,0.7-4.4-4-6.4-6.4c2.2-1.7,5.1-3.1,3.1-6.6c10,6.7,19.7,13.7,24.7,25.3
		c1.8,4.1,2.5,8.6,3.1,13.2c-6.8-12.8-13.7-25.3-26.8-32.9c-2,1.5-2.4,2.8-0.4,4.5C429.6,190.7,430.4,191.8,431.3,192.8z"/>
	<path id="XMLID_176_" class="st22" d="M440,201.5c7.1,7.2,11.9,15.7,15.1,26.1c-6.2-8.3-11.9-15.9-17.6-23.5c0,0,0.1-0.1,0.1-0.1
		C438.4,203.2,439.2,202.4,440,201.5z"/>
	<path id="XMLID_175_" class="st21" d="M427.6,179.4c-0.9-0.1-1.7-0.3-2.7-0.4c1-4.4,4.2-5.5,7.9-5.9
		C431.1,175.2,429.3,177.3,427.6,179.4z"/>
	<path id="XMLID_174_" class="st22" d="M427.9,199.3c1.4-3.4,3.9,0.5,5.6-0.7c1.1,1.6,2.1,3.2,3.2,4.9
		C433.7,202,430.8,200.7,427.9,199.3z"/>
	<path id="XMLID_173_" class="st9" d="M436.7,203.4c-1.1-1.6-2.1-3.2-3.2-4.9c0,0,0,0,0,0c1.1-0.1,2.3-0.2,3.4-0.2l-0.2,0.2
		c0,0,0.1-0.2,0.1-0.2c0.3,0.3,0.6,0.6,0.8,0.8l-0.2,0.1c0,0,0.2-0.2,0.2-0.2c-0.1,1.6-0.1,3.3-0.2,4.9c0,0-0.1,0.1-0.1,0.1
		C437.2,203.9,436.9,203.7,436.7,203.4z"/>
	<path id="XMLID_172_" class="st21" d="M436.9,198.3c-1.1,0.1-2.3,0.2-3.4,0.2c-0.5-1.7-1-3.3-1.5-5
		C433.7,195.2,435.3,196.7,436.9,198.3z"/>
	<path id="XMLID_171_" class="st21" d="M437.5,204c0.1-1.6,0.1-3.3,0.2-4.9c0.7,0.8,1.5,1.6,2.2,2.4
		C439.2,202.4,438.4,203.2,437.5,204z"/>
	<path id="XMLID_170_" class="st21" d="M432.8,173.1c-0.4-3.2,2.2-2.7,4-3.3C435.4,170.9,434.1,172,432.8,173.1z"/>
	<path id="XMLID_169_" class="st12" d="M390.8,131.2c0.2-0.1,0.4-0.2,0.6-0.3c-0.1,0.2-0.2,0.4-0.2,0.6
		C391,131.5,390.8,131.4,390.8,131.2z"/>
	<path id="XMLID_168_" class="st21" d="M437.7,199.1c-0.3-0.3-0.6-0.6-0.8-0.8C437.2,198.6,437.5,198.9,437.7,199.1z"/>
	<path id="XMLID_167_" class="st21" d="M432.1,193.6c-0.3-0.3-0.6-0.6-0.9-0.9C431.5,193.1,431.8,193.3,432.1,193.6z"/>
	<path id="XMLID_164_" class="st23" d="M387.3,263.3c-1.4,5-2.8,10-4.1,15.1c-0.9-0.8-2.2-1.5-2.6-2.5c-0.4-1.2-0.1-2.6-0.1-3.9
		c0.1-3.7-1.8-5-5.2-3.2c-2.8,1.4-5.4,3.4-8.3,4.7c-8.2,3.7-16.3,7.8-24.8,10.5c-12.3,4-23.5-0.8-34.1-6.6c-3.6-2-7-4.2-11-6.7
		c-0.9,2.2-1.6,4.1-2.7,7.1c-2.9-5.5-5.7-10.4-7.9-15.5c-0.5-1.2,0.3-3.5,1.2-4.7c2.3-3.1,5.1-6,8.3-9c-1.4,8.4,4.4,9.4,9.9,10.8
		c15.3,4,30.4,3.8,45.5-1.3c4.4-1.5,8.9-2.8,13.3-4c3.3-0.9,4-3,3.2-6c-0.5-1.9-1-3.8-0.7-6.5c6.4,5.1,13,10,19.1,15.5
		C387.5,258,387,261.1,387.3,263.3z M377.4,261.7c-5.3-4.9-5.7-4.8-11.4-3.4c-9.9,2.5-19.7,5.5-29.7,7c-12.5,1.9-24.8-1.3-37-3.7
		c-1.2-0.2-2.7,0.6-4,0.9c0.7,1.5,1.1,3.7,2.3,4.4c3,1.8,6.5,3,9.7,4.5c11.9,5.3,24.4,8.6,37.1,5c10.1-2.9,19.6-7.8,29.3-11.9
		C375,264,376.1,262.8,377.4,261.7z"/>
	<path id="XMLID_163_" class="st23" d="M334.7,241.9c-7.1,3.2-8.4,2.9-12.5-3c-7.3-10.7-7.1-10.5,0.9-20.8
		c5.3-6.8,9.7-14.2,14.6-21.3c1.4-2.1,3.1-4,4.7-6c0.5,0.3,1,0.6,1.5,0.8c-1.9,5-3.5,10.2-5.8,15c-2.7,5.6-5.9,11-9.2,16.3
		c-2.5,4-2,7.5,0.5,11.1C331.2,236.5,332.9,239.2,334.7,241.9z"/>
	<path id="XMLID_162_" class="st24" d="M362.3,198.6c5.6-3.2,11.1-4.8,17.1-4.3c9.6,0.7,14.8,9.2,12.2,19
		C382,208.5,372.3,203.6,362.3,198.6z"/>
	<path id="XMLID_161_" class="st24" d="M297.6,200.7c1.1-2.6,1.9-6.1,3.8-9c2.3-3.7,5.5-3.2,7.7,0.5c2.6,4.5,1.8,13.8-1.6,17.7
		c-2.7,3.2-6,2.9-7.8-1C298.7,206.8,298.5,204.2,297.6,200.7z"/>
	<path id="XMLID_160_" class="st25" d="M385.5,164.3c4.8,4,9.2,8.4,10.9,14.7c0.4,1.3,0.5,2.7,1,4.8c-1.9-1.5-3.2-2.6-4.5-3.6
		c-4.3-6.3-10.4-10.3-17.7-13.1c2.4-1.9,4.6-3.6,6.7-5.3C383.1,162.6,384.3,163.5,385.5,164.3z"/>
	<path id="XMLID_159_" class="st25" d="M318.5,290.4c5.7-0.5,11-0.9,16.3-1.4c2.4-0.2,4.3,0.5,4.7,3.1c0.5,2.6-1.2,3.8-3.4,4.5
		C329.6,298.5,322.6,296.2,318.5,290.4z"/>
	<path id="XMLID_158_" class="st26" d="M314.6,166.4c-5.6,2.2-11.1,4.2-16.6,6.3c2.6-5.5,8.1-7.4,13.3-10.3
		C312.5,163.8,313.7,165.3,314.6,166.4z"/>
	<path id="XMLID_157_" class="st27" d="M443,228.6c-4-4.4-8.9-9.8-13.8-15.2c-0.7,0.6-1.4,1.2-2.1,1.7c0.6-2,1.8-3,4-1.7
		C437.4,217.4,441.9,222.7,443,228.6z"/>
	<path id="XMLID_156_" class="st25" d="M433.7,238.3c-2.3-3.1-4.3-6.1-6.4-8.9c-1.8-2.4,0-4.3,1.6-3.5c2.8,1.4,5.2,4,7.1,6.6
		C437.7,234.8,436.5,237,433.7,238.3z"/>
	<path id="XMLID_155_" class="st28" d="M377.4,261.7c-1.4,1.1-2.4,2.2-3.7,2.8c-9.7,4.1-19.3,9-29.3,11.9c-12.7,3.7-25.2,0.3-37.1-5
		c-3.3-1.5-6.7-2.6-9.7-4.5c-1.2-0.7-1.5-2.9-2.3-4.4c1.3-0.3,2.8-1.2,4-0.9c12.2,2.4,24.5,5.6,37,3.7c10-1.6,19.9-4.5,29.7-7
		C371.7,256.9,372.2,256.9,377.4,261.7z"/>
</g>
</svg>
