<?xml version="1.0" encoding="utf-8"?>
<!-- Generator: Adobe Illustrator 19.0.0, SVG Export Plug-In . SVG Version: 6.00 Build 0)  -->
<svg version="1.1" id="Camada_1" xmlns="http://www.w3.org/2000/svg" xmlns:xlink="http://www.w3.org/1999/xlink" x="0px" y="0px"
	 viewBox="0 0 612 792" style="enable-background:new 0 0 612 792;" xml:space="preserve">
<style type="text/css">
	.st0{fill:#FFFFFF;}
	.st1{fill:#131414;}
	.st2{fill:#497BB8;}
	.st3{fill:#355985;}
	.st4{fill:#84A7D2;}
	.st5{fill:#487BB7;}
	.st6{fill:#FAE7A9;}
	.st7{fill:#FCEED7;}
	.st8{fill:#D7D34E;}
	.st9{fill:#F8EB76;}
	.st10{fill:#F7E5A9;}
	.st11{fill:#487BB8;}
	.st12{fill:#FBEED6;}
	.st13{fill:#FAFAFA;}
	.st14{fill:#F4E3A9;}
	.st15{fill:#EADFAB;}
	.st16{fill:#EFE578;}
	.st17{fill:#4A79AA;}
	.st18{fill:#E5DBAC;}
	.st19{fill:#4B7BB5;}
	.st20{fill:#4A7AB0;}
	.st21{fill:#EEE2B7;}
	.st22{fill:#4C729C;}
	.st23{fill:#477DB1;}
	.st24{fill:#191817;}
	.st25{fill:#151411;}
	.st26{fill:#201E17;}
	.st27{fill:#2C2923;}
	.st28{fill:#F8F7F7;}
</style>
<g id="XMLID_4_">
	<path id="XMLID_326_" class="st0" d="M592,683.3c-192.7,0-385.3,0-578,0c0-193,0-385.9,0-578.9c192.7,0,385.3,0,578,0
		C592,297.4,592,490.3,592,683.3z M384,643c7.2-1.2,14.5-2.4,21.7-3.6c6.8-1.1,13.7-1.7,20.4-3.3c9.2-2.2,18.2-5,27.3-7.6
		c3.9-0.5,7.7-1.1,11.9-1.7c-3.5-8.1-6.9-16.1-10.6-24.6c2,0,3.3,0,4.5,0c10.4,0.1,20.7-0.2,31,0.6c7.3,0.5,11.3-2.1,14.3-8.3
		c4.5-9.3,9.7-18.4,2.6-28.6c-0.4-0.6-0.6-1.5-1.1-2c-4.5-5-3.1-8.5,1-13.9c8.5-11.2,15.7-23.5,22.4-35.9
		c10-18.3,18.5-37.2,23.9-57.3c1.6-5.9,1.1-11.3-2.7-16.4c-3.9-5.1-7.4-10.5-11.2-15.7c-13.7-18.8-28.8-36.5-46.6-51.7
		c-25.3-21.6-54.4-37-85.8-48.3c-2.4-0.9-4.7-1.8-7.5-2.9c5.5-6.6,10.5-12.7,15.8-18.7c0.6-0.7,2.1-1.1,3.2-1.1
		c17.4-0.6,30.4-23.1,20.7-38.9c-0.7-1.2-0.7-3.5,0-4.8c7.1-13.1,11.7-27,14.4-41.5c4-21.6-0.9-40.8-15.1-57.8
		c-3.8-4.5-8-8.2-13.1-11.3c-3.1-1.8-5.3-5.1-7.6-8c-1.6-2-2.8-4.3-3.9-6.6c-3.4-6.6-8.9-10.4-16.3-11c-8.8-0.8-15.9-4.1-22.5-10
		c-9.4-8.4-20.2-7.3-28.2,2.7c-6.1,7.6-13.4,11.9-23.4,11.1c-1-0.1-2.1,0-3.1,0.1c-6.1,0.4-11.9,1.7-16.5,6.1
		c-2.4,2.3-4.6,4.9-6.8,7.4c-4.2,4.7-8.4,9.1-15.7,8.6c-6.1-0.5-9.1-4.6-6.9-10.2c0.9-2.4,2-4.8,3.1-7.6c-17.4,4.9-28.7,18.7-23,38
		c1.1,3.5,1.1,6.2-0.7,9.7c-4.1,7.7-4.9,16.2-0.4,23.9c4,6.8,3.8,12.5,1,19.8c-8.3,21.8-8.5,44.3-3.4,66.8
		c3.8,16.8,10.8,32,24.1,43.8c0.5,0.5,0.9,1.2,1.5,2.2c-1.3,0.3-2.3,0.6-3.3,0.7c-18,1.6-36,3.1-53.9,4.7
		c-28,2.4-54.6-3.4-80.7-12.4c-4.1-1.4-7.6-3.4-9.5-7.8c-1.1-2.7-3.6-5-6-6.9c-5-4-10.5-7.5-15.6-11.5c-9.4-7.4-11.8-16.6-8-27.7
		c2-5.8,4.1-11.7,4.9-17.7c1.3-10-1.2-16.1-9.5-17.4c-9.4-1.4-18.5,0.5-25.9,7.2c-7.8,7.1-10.3,16.4-11.2,26.2
		c-0.9,9.6,1.4,18.5,5.4,27.2c2.2,4.7,0.6,7.1-4.5,7.5c-4.2,0.3-8.4,0.2-12.5,1c-4.7,0.9-9.8,1.7-13.7,4.1
		c-10.1,6.2-11.9,19.2-4,29.2c3.1,3.9,3.2,6.5,0.6,10.7c-5.9,9.3-3.6,17.6,5.8,23.7c1.1,0.7,2,1.5,2.6,1.9c-1.3,3.8-3,7-3.4,10.4
		c-0.9,7,2.7,12.6,7.6,17.3c9.5,9.2,21.3,12.9,34.3,14c5.5,0.4,11,0.5,16.4,1.6c25.3,5.2,50.7,4.9,76.2,2.7
		c19-1.6,37.3-6.2,55.4-11.7c3.9-1.2,7.9-2.2,12.2-3.4c0.2,1.3,0.4,2.2,0.4,3c0.3,16,0.4,32,1.1,48c0.4,10.6,1.2,21.2,2.6,31.7
		c2.4,18.7,5.8,37.4,8.1,56.1c2.9,23.6,5.3,47.3,7.8,70.9c0.4,3.3,5.2,7,9.1,7c2,0.4,4.1,0.5,5.9,1.3c5.3,2.3,10.5,4.9,15.7,7.3
		c20.4,7.9,41.9,10.5,63.6,11.2C361.8,644.9,372.9,643.6,384,643z"/>
	<path id="XMLID_311_" class="st1" d="M265.5,624.7c-4,0-8.8-3.6-9.1-7c-2.6-23.6-4.9-47.3-7.8-70.9c-2.3-18.8-5.7-37.4-8.1-56.1
		c-1.4-10.5-2.2-21.1-2.6-31.7c-0.6-16-0.7-32-1.1-48c0-0.9-0.2-1.7-0.4-3c-4.2,1.2-8.2,2.2-12.2,3.4c-18.1,5.5-36.5,10.1-55.4,11.7
		c-25.5,2.1-50.9,2.5-76.2-2.7c-5.3-1.1-10.9-1.1-16.4-1.6c-13-1.1-24.9-4.8-34.3-14c-4.8-4.7-8.5-10.3-7.6-17.3
		c0.4-3.4,2.1-6.7,3.4-10.4c-0.6-0.4-1.6-1.2-2.6-1.9c-9.4-6.1-11.7-14.4-5.8-23.7c2.6-4.1,2.5-6.7-0.6-10.7
		c-7.9-10.1-6.1-23,4-29.2c3.9-2.4,9-3.2,13.7-4.1c4.1-0.8,8.3-0.7,12.5-1c5.1-0.4,6.7-2.8,4.5-7.5c-4-8.7-6.3-17.6-5.4-27.2
		c0.9-9.9,3.4-19.1,11.2-26.2c7.3-6.7,16.4-8.7,25.9-7.2c8.4,1.3,10.8,7.4,9.5,17.4c-0.8,6-2.9,11.9-4.9,17.7
		c-3.8,11.1-1.4,20.3,8,27.7c5.1,4,10.6,7.5,15.6,11.5c2.4,1.9,4.8,4.2,6,6.9c1.9,4.4,5.4,6.4,9.5,7.8c26.1,9,52.8,14.8,80.7,12.4
		c18-1.5,36-3.1,53.9-4.7c1-0.1,2-0.4,3.3-0.7c-0.7-1-1-1.7-1.5-2.2c-13.4-11.8-20.3-27-24.1-43.8c-5.1-22.5-4.9-45.1,3.4-66.8
		c2.8-7.3,3-13-1-19.8c-4.5-7.7-3.7-16.2,0.4-23.9c1.8-3.5,1.8-6.2,0.7-9.7c-5.8-19.3,5.6-33.1,23-38c-1.1,2.8-2.2,5.2-3.1,7.6
		c-2.1,5.6,0.8,9.7,6.9,10.2c7.3,0.6,11.5-3.9,15.7-8.6c2.2-2.5,4.4-5.1,6.8-7.4c4.5-4.4,10.3-5.7,16.5-6.1c1-0.1,2.1-0.2,3.1-0.1
		c10,0.7,17.3-3.5,23.4-11.1c8-10,18.7-11.1,28.2-2.7c6.6,5.9,13.7,9.2,22.5,10c7.4,0.7,12.9,4.4,16.3,11c1.2,2.3,2.3,4.6,3.9,6.6
		c2.3,2.9,4.5,6.2,7.6,8c5.1,3.1,9.4,6.8,13.1,11.3c14.2,17,19.1,36.2,15.1,57.8c-2.7,14.5-7.4,28.4-14.4,41.5
		c-0.7,1.3-0.7,3.6,0,4.8c9.7,15.8-3.3,38.3-20.7,38.9c-1.1,0-2.6,0.4-3.2,1.1c-5.2,6-10.3,12.2-15.8,18.7c2.8,1.1,5.1,2.1,7.5,2.9
		c31.4,11.3,60.5,26.7,85.8,48.3c17.8,15.2,32.9,32.9,46.6,51.7c3.8,5.2,7.3,10.6,11.2,15.7c3.8,5.1,4.3,10.5,2.7,16.4
		c-5.4,20.1-14,39.1-23.9,57.3c-6.7,12.4-14,24.6-22.4,35.9c-4.1,5.4-5.4,8.9-1,13.9c0.5,0.6,0.7,1.4,1.1,2
		c7,10.3,1.8,19.3-2.6,28.6c-3,6.2-7,8.9-14.3,8.3c-10.3-0.8-20.7-0.4-31-0.6c-1.3,0-2.5,0-4.5,0c3.7,8.5,7.1,16.4,10.6,24.6
		c-4.2,0.6-8,1.1-11.9,1.7c-1.4-3.6-2.8-7.1-4.2-10.7c-5-13.3-10.1-26.5-15-39.9c-1.3-3.5-2.7-5-6.9-4c-14.1,3.5-28.4,6.6-42.6,9.8
		c-10.7,0.9-21.4,2.2-32.1,2.5c-18.2,0.6-36.4,0.8-54.1-4.7c-4-1.2-8-2.1-12-3.1c-4.4-1.8-8.7-3.7-13.1-5.5
		c-4.7-1.9-9.5-3.7-14.6-5.7C261.2,587,263.3,605.9,265.5,624.7z M177.1,416.4L177.1,416.4c3.5-0.6,6.9-1.1,10.3-1.7
		c0.6-0.1,1.2-0.2,1.7-0.4c0.3-0.1,0.5-0.1,0.8-0.2l0,0c2.3-0.3,4.6-0.5,6.9-1c7.6-1.7,15.1-3.4,22.6-5.2c0,0,0.3,0,0.3,0
		c1.9-0.5,3.9-1,5.8-1.6l0.2,0.1l0.2-0.1c1.6-0.5,3.2-0.9,4.8-1.4c7.2-2.1,7.2-2.1,7-9.4c1.1-3.9,4.4-3.9,7.8-4.5c0,1.2,0,2.1,0,2.9
		c-0.4,12.9-1.6,25.8-1.1,38.7c0.9,21.3,2.8,42.6,4.4,63.9c0.1,1.2,0.9,2.8,1.9,3.5c5.9,4,11.8,8.1,18,11.6
		c5.4,3.1,11.3,5.5,16.7,8.1c0-6.5,0.2-12.7,0-18.7c-0.8-23.4-0.3-46.9,2.7-70.1c1.9-14.6,4.6-29,7.2-43.5c0.4-2.3,0-3.8-1.7-5.3
		c-5-4.5-7.7-10.2-9.4-16.5c-2.3-8.3-1.5-16.4,1.3-25.3c-3.4,0-6.2-0.2-9,0c-16.3,1.3-32.6,2.5-48.9,3.9c-21,1.9-41.8,1.3-62.6-2.2
		c-7.8-1.3-15.6-2.6-24.1-4c1.7,7.9,3.3,15.4,4.9,22.8c-0.1,6.4-0.3,12.7-0.4,19.1c-1.8,8.5-4.9,16.3-10.6,23.1
		c-2.6,3.1-5.3,6.2-8,9.2l0,0c-2.2,1.8-4.4,3.7-6.6,5.5c0.1,0.3,0.2,0.6,0.3,0.8c2.1,0,4.3,0,6.4,0c15.5-0.6,31-1.1,46.5-1.7
		C174.6,416.8,175.8,416.6,177.1,416.4z M469.9,363.2c-1.1-0.8-2.1-1.5-3.2-2.3c-13.5-10-28.2-17.6-43.7-24.3
		c-0.3,0.9-0.5,1.3-0.5,1.7c-1.7,16.2-9.7,29.2-22,39.8c-12.1,10.5-26.3,16.8-42.1,20c-7.1,1.4-8.1,2.9-8.9,9.9
		c-1.8,15.8-4.2,31.5-5.3,47.3c-1.7,23.4-2.2,46.8,0.3,70.2c0.4,3.4,2,4.9,5.3,4.8c10.4-0.3,20.9-0.6,31.3-1.2
		c4.1-0.3,8.1-1.5,12.2-2.3c10.7-3,21.4-6.2,32.2-8.9c4-1,4.9-3.2,5.4-6.7c1.8-12.1,3.6-24.2,5.9-36.2c1.5-8,3.8-15.9,5.8-23.8
		c0.6-2.3,0.8-4.1-1.9-5.4c-8.7-4.1-17.2-8.5-25.8-12.7c-1.7-1.2-3.4-2.4-5.2-3.6c0.2-0.4,0.4-0.8,0.6-1.2c2.4,0.6,5,1,7.3,1.9
		c18.4,7.4,36.8,15.1,55.3,22.4c4,1.6,8.3,2.2,12.7,3.4c-0.6,1-0.7,1.5-1,1.9c-14.1,18.1-23.5,38.8-32.9,59.4
		c-1.1,2.5-2.3,4.9,0,7.4c3.4,4.3,6.6,8.8,10.2,13c4.1,4.8,9.4,8.5,15.8,9.2c7.6,0.8,15.3,0.7,22.9,0.7c1.1,0,2.7-1.5,3.4-2.7
		c4.9-8,9.5-16.1,14.3-24.2c10.3-17.1,19.3-34.7,26.7-53.2c1.6-4,2.8-8.3,3.5-12.5c1.4-8.7-3.9-15.2-8.5-21.9
		c-5-6.4-9.8-12.9-15.1-19.1c-6.8-7.9-13.7-15.8-21.2-23c-7.4-7.2-15.6-13.5-23.4-20.2C476.7,368.4,473.3,365.8,469.9,363.2
		L469.9,363.2z M107.9,378.6c-0.5,0.6-0.9,1.1-1.4,1.7l0,0.1c0,1.2-0.3,2.6,0.2,3.5c4.1,7.6,3.7,11.5-2.1,17.8
		c-4.3,1.7-8.5,4.2-13,4.9c-6.8,1.1-13.8,1-20.7,1.3c-3.7,0.2-7.4,0-11.2,0c-0.1,0.3-0.2,0.6-0.2,1c1.6,0.7,3.1,1.7,4.7,2.1
		c8.4,2.2,17,2.9,25.7,1.9c9.6-1.1,18.2-4.1,24.7-11.7c7.6-8.9,10.2-19.4,10.8-31.1c-2.1,1.1-3.7,1.8-6.3,3.1
		c2.9-5.3,5.3-9.4,7.5-13.7c3.2-6.3,4.7-13,3-20.1c-3.3-13.4-10.5-24.5-21.9-32.6c-8.8-6.3-14.2-14.1-14.5-25
		c0.6-3.3,1.2-6.5,1.8-9.8c1.1-5.5,2.3-11,3.4-16.5c1.1-6-0.9-9.8-5.6-11c-11-2.7-23.6,3.4-27.9,13.6c-6.2,14.9-3.1,28.8,4.7,42.2
		c1.3,4.2,4,6.5,8.3,8.1c7.4,3,14.9,6.3,21.6,10.5c11.8,7.3,13,23.6,3,32.5c-0.2,0.1-0.2,0.5-0.3,0.7c2,2.2,3.9,4.4,5.9,6.6
		C113,365.5,112.4,372.1,107.9,378.6C107.9,378.7,107.9,378.6,107.9,378.6z M391.1,336.5c-0.6,1.3-1.2,2.5-1.7,3.8
		c-3.1,4.1-5.7,8.7-9.4,12.1c-12.3,11.6-27.3,17-44.3,16.1c-10.6-0.6-20.6-4-26.3-13.1c-4.4-7-10.9-8.9-18.7-11.9
		c-0.9,5-2.7,9.6-2.3,14.1c0.7,7.6,3.7,14.7,9.5,20.2c3.8,3.6,4.4,7.6,3.3,12.3c-6.6,29-9.9,58.3-10,87.9
		c-0.1,13.7,0.5,27.4,0.9,41.1c0.2,6.7-2.9,7.3-9.2,6.3c-0.8-0.1-1.5-0.6-2.2-0.9c-6.1-3-12.2-5.9-18.2-9.1c-4.1-2.2-8-4.6-13.1-7.6
		c2.7,17,5.2,33.1,7.9,49.1c0.2,1.2,1.6,2.5,2.8,3.2c21.8,12.6,45.5,18.7,70.6,19.9c33.5,1.7,66-3.8,97.6-14.5
		c2.5-0.8,2.6-2,2.6-4.2c-0.5-11.5-0.8-23-1.1-34.5c0-1.1-0.1-2.2-0.1-2.4c-15.2,3.4-30.1,7.1-45.2,10c-12.1,2.3-24.3,3.8-36.7,1.9
		c-5.6-0.9-8.7-3.5-9.2-8.8c-0.7-7.6-1.4-15.3-1.7-23c-1.2-33.6,2.3-67,7-100.2c1-7.3,3.9-10.7,11.3-11.8
		c11.8-1.8,22.1-6.7,31.8-13.3c16.2-11,26.7-25.7,29.4-45.6c-3.6-1.4-7.2-2.8-10.8-4.2c-3.3-1.4-6.5-2.7-10.3-4.3
		C393.7,329.2,392.4,332.8,391.1,336.5L391.1,336.5z M417,229.6L417,229.6c5.3,7.1,10.6,14.2,15.6,20.9c-0.2-5.8-7.6-18.5-14.7-24.9
		c-0.5-0.5-1-1.1-1.5-1.6c-0.2-0.2-0.4-0.4-0.6-0.6c-2.7-2.7-5.4-5.6-8.3-8.1c-1.9-1.7-1.6-2.8,0.3-4.4
		c12.9,7.3,19.7,19.4,26.5,31.7c-0.6-4.5-1.4-9-3.2-13c-4.9-11.1-14.6-17.7-24.4-24.3l-0.2-0.2c1-1.5,1.9-3,2.9-4.6
		c1.9-1.3,3.9-2.5,5.6-4c4.3-3.9,5.4-8.6,3.4-13.5c-2.2-5.2-6.7-8.5-12.5-8c-5.6,0.5-11.1,1.3-16.5,2.6c-6.1,1.5-11.1,1-15.4-4.2
		c-3.5-4.3-8-7.6-13.7-9c-3.7-2-7.6-1.6-11.4-0.4c-2.4,0.8-4.7,1.7-6.9,2.6c-6.6,2.7-12.8,2.4-19.1-1.2c-8.1-4.6-11-4.1-17.4,2.6
		c-3.3,3.4-6.4,7.1-9.5,10.7c-3.8,4.2-7.9,7.9-13.7,9.2c-4.2,1-6.4,4-8.5,7.4c-14.8,24-21.7,49.7-17.2,77.7
		c4.4,27.3,16.5,50.2,40.4,66.1c9.4,6.3,19.7,11,31.1,12.8c6.4,0.7,12.7,1.3,19.8,2c-2.5,1-4.4,1.8-6.3,2.6
		c-1.9,0.4-3.7,0.8-5.6,1.2c-1.7,0.4-3.5,0.7-5.3,1c8,3.1,15.7,2.8,23.4,0c14.1-4.2,26.4-10.5,32.2-25.8c-3.6,1.4-6.3,2.7-9.3,3.5
		c-2.9,0.8-6,1-9,1.5c-0.1-0.4-0.3-0.8-0.4-1.1c1.4-1.2,2.7-2.6,4.3-3.6c12.6-7.8,22.8-18,31.2-29.8c3.3-4.7,6.7-7.3,12.9-7.9
		c12-1.1,20.5-14.3,16.5-25.3c-1.5-4-4.5-7.4-6.9-11.1c1.6-1,3.2-2,4.9-3.1c-5.7-9.8-11.4-19.2-20.7-25.9c-1.9-1.4-4.4-3.2-2.2-6.3
		c2.9,1.7,5.8,3.3,8.7,5C416.5,229.1,416.8,229.3,417,229.6z M370.3,158.6c0,0.2,0.1,0.3,0.3,0.3c2.9,3.6,5.9,7.2,8.6,10.9
		c3.3,4.5,7.2,5.1,12.2,3.1c4-1.6,8.1-3,12.2-4.1c9.3-2.5,17.7,0.8,22,8.4c4.8,8.5,3.7,14.3-4.4,21.7c-2.1,2-4.4,3.8-6.9,5.9
		c11.2,8.9,21,18.5,24.1,32.9c5.1-10.9,7.6-22,8.4-33.4c1.4-18.6-5.9-34.2-18.8-47.1c-5.1-5-10.2-9.7-14-15.8
		c-3.1-5-6.9-9.9-12.8-11.4c-12.3-3.2-23.6-8-33.5-15.9c-3.4-2.7-7.9-3.5-11.8,0.1c-3.7,4.6-7.6,9.1-11.2,13.8
		c-5.2,6.7-7.1,7.8-14.8,4.6c-9-3.8-16.2-1.7-22.8,4.6c-4.1,3.9-8.2,7.9-12.5,11.7c-4.9,4.4-10.7,6.3-17.4,4.6
		c-6.1-1.6-9.8-5.4-11-12.4c-1.1,1.4-1.8,2.2-2.4,3c-7.9,9.7-6.4,28.7,2.9,37.2c2.6,2.4,5.6,3.5,9.3,3.3c6.5-0.5,11.2-4,15.3-8.4
		c4.1-4.3,7.9-8.9,12.2-13c7.1-6.8,12.6-7.3,21.2-2.6c1.2,0.7,2.4,1.8,3.8,2c2.2,0.4,4.7,0.9,6.6,0.2c3.9-1.4,7.6-3.4,11.2-5.6
		c12.7-7.5,12.8-7,24.1,1.4L370.3,158.6z M448.8,535.4c-0.5,0-1.1,0-1.6,0c-2.5,5.9-6.4,11.7-7.3,17.8c-1.9,12.6,2.4,24.5,6.9,36.1
		c1.5,3.9,4.3,6,8.5,6.2c12.1,0.6,24.3,1,36.4,1.4c1.1,0,2.5-0.3,3.2-1c5.4-6.2,9.6-13,6.9-21.6c-1.3-4.2-3.4-8.2-5.1-12.4
		c-5.6,0.9-9,4-12,7.8c-2.6,3.4-2.7,6.4,0.8,9.4c1.8-0.8,3.6-1.6,5.8-2.6c0.9,2.5,2.1,4.6,2.2,6.8c0.1,1.4-1.4,3-2.6,4.1
		c-0.7,0.7-2.7,1-3.3,0.6c-9.3-6.7-12.9-10.9-7.1-21.7c1.7-3.2,4.2-6.1,6.8-9.9C470.2,556.5,458.2,548.2,448.8,535.4z M102.3,337.2
		c0.1-6.5-2.9-11-8.1-14.6c-15.6-10.7-32.8-11.7-50.7-8.6c-2.1,0.4-4.3,1.1-6.1,2.3c-8,5.1-9.1,13.6-3.5,23c1.6,2.7,3.2,3.6,6.5,3
		c11.2-2.1,22.5-4.3,33.9-1.9c6.6,1.4,13,3.9,19.4,6c3.5,1.2,5.7-0.3,7.1-3C101.6,341.6,101.8,339.3,102.3,337.2z M58.6,345.4
		c-5.6,0.7-11.2,0.9-16.7,2.1c-2.5,0.5-5.8,2.4-6.6,4.5c-2.5,6.4-2,13,2.7,18.4c1.3,1.5,4.1,2.9,5.9,2.5c13-2.7,25.8-1.8,38.6,1
		c5.7,1.2,11.5,2.3,17.3,3.1c1.1,0.2,2.9-0.7,3.5-1.6c3.2-4.7,3.1-10.3-0.7-14.6c-2.2-2.5-4.9-4.7-7.8-6.3
		C83.6,348.4,71.5,345.8,58.6,345.4z M73.7,404.2c7.6-1.3,15.4-0.8,21.7-5.4c2.5-1.8,5-5.2,5-8c0-2-3.6-4.7-6.2-5.9
		c-12.8-5.7-26.5-7.7-40.4-8c-6.6-0.1-11.1,2.7-12.6,7.2c-2.2,6.3,0.8,12.9,8.2,15.1C57.2,401.7,65.5,402.6,73.7,404.2z
		 M451.8,451.1c-6.4,27.4-14.7,54.3-11,82.7c1.1-2.3,1.8-4.6,2.2-7c0.3-1.9-0.1-4.1,0.6-5.8c8.9-20.3,18.9-40,31.5-58.4
		c0.7-1,1.2-2,1.9-3.2C468.4,456.5,460.4,453.9,451.8,451.1z M137.6,345.5c-2.2,5.9-4.3,11.4-6.4,17c-0.3,0.8-0.6,1.7-0.5,2.6
		c1.5,13.6-3.7,25.4-11,36.4c-4.5,6.8-10.4,12.2-18.2,15.8c3.9,0.5,8.3,1.8,11.2,0.2c12.2-6.5,20.6-16.7,26.1-29.2
		c3.7-8.6,3.7-17.7,2.5-26.7C140.5,356.2,138.9,350.9,137.6,345.5z M261,182c-6.8,4.6-4.8,16.3,0.4,22.7c3.1-5.3,6.3-10.7,9.4-16.1
		C267.5,186.4,264.3,184.2,261,182z"/>
	<path id="XMLID_307_" class="st2" d="M286.6,578.6c4,1,8.1,1.9,12,3.1c17.7,5.4,35.9,5.3,54.1,4.7c10.7-0.4,21.4-1.7,32.1-2.5
		c0.3,1.4,0.8,2.7,0.7,4.1c-0.4,7.9-1.2,15.8-1.4,23.7c-0.3,10.5-0.1,21-0.2,31.5c-11.1,0.6-22.2,1.9-33.2,1.6
		c-21.7-0.7-43.2-3.3-63.6-11.2c-0.2-1.5-0.7-3-0.6-4.5c0.1-4.6,0.6-9.1,0.6-13.7C287.1,602.9,286.8,590.7,286.6,578.6z
		 M359.1,589.1c0-0.2,0-0.5,0-0.7c-9.9,0-19.7,0-29.6,0c0,0.2,0,0.5,0,0.7C339.4,589.1,349.2,589.1,359.1,589.1z M341.3,640.5
		c0,0.3,0,0.5,0,0.8c3.8,0,7.7,0,11.5,0c0-0.3,0-0.5,0-0.8C349,640.5,345.1,640.5,341.3,640.5z"/>
	<path id="XMLID_306_" class="st3" d="M384,643c0-10.5-0.1-21,0.2-31.5c0.2-7.9,1-15.8,1.4-23.7c0.1-1.3-0.5-2.7-0.7-4.1
		c14.2-3.2,28.4-6.3,42.6-9.8c4.3-1.1,5.7,0.5,6.9,4c4.9,13.3,10,26.6,15,39.9c1.4,3.6,2.8,7.1,4.2,10.7c-9.1,2.6-18.1,5.4-27.3,7.6
		c-6.7,1.6-13.6,2.2-20.4,3.3C398.4,640.6,391.2,641.8,384,643z"/>
	<path id="XMLID_305_" class="st4" d="M286.6,578.6c0.2,12.2,0.5,24.4,0.6,36.6c0,4.6-0.5,9.1-0.6,13.7c0,1.5,0.4,3,0.6,4.5
		c-5.2-2.5-10.4-5-15.7-7.3c-1.8-0.8-3.9-0.9-5.9-1.3c-2.2-18.9-4.4-37.7-6.6-57.3c5.2,2,9.9,3.8,14.6,5.7
		C277.9,574.9,282.3,576.7,286.6,578.6z"/>
	<path id="XMLID_302_" class="st5" d="M480.1,370.9c7.8,6.7,16,13.1,23.4,20.2c7.5,7.2,14.4,15.1,21.2,23
		c5.3,6.1,10.1,12.7,15.1,19.1c-0.8,3.4-1.4,6.9-2.5,10.3c-5.1,15.6-14.7,28.7-26.7,39.7c-8.7,8-18.6,14.9-28.4,21.8
		c-9.9,7-20.4,13.2-30.6,19.8c-2.2-2.5-1.1-4.9,0-7.4c9.4-20.6,18.7-41.3,32.9-59.4c0.3-0.4,0.5-0.9,1-1.9
		c-4.4-1.1-8.7-1.8-12.7-3.4c-18.5-7.3-36.9-15-55.3-22.4c-2.3-0.9-4.9-1.3-7.3-1.9c-0.2,0.4-0.4,0.8-0.6,1.2
		c1.7,1.2,3.4,2.4,5.2,3.6c-0.7,3.7-1.3,7.5-2.2,11.2c-2.9,11.7-6,23.4-8.7,35.2c-3.7,15.7-7,31.5-10.5,47.3
		c-4.1,0.8-8.1,2-12.2,2.3c-10.4,0.6-20.9,0.9-31.3,1.2c-3.3,0.1-4.9-1.4-5.3-4.8c-2.5-23.4-2-46.8-0.3-70.2
		c1.1-15.8,3.5-31.5,5.3-47.3c0.8-7,1.8-8.5,8.9-9.9c15.8-3.2,30-9.5,42.1-20c12.2-10.6,20.3-23.6,22-39.8c0-0.4,0.2-0.7,0.5-1.7
		c15.5,6.6,30.3,14.3,43.7,24.3c-0.4,2.7,1.4,2.6,3.2,2.3c0,0,0,0,0,0c2.8,2.8,5.6,5.7,8.5,8.5C478.5,371.8,479.5,371.2,480.1,370.9
		z M349.3,429c0.4,4.3,0.9,7.4,0.8,10.5c-0.1,2.2-1.5,4.4-1.4,6.5c0.3,6.5,1.1,13,1.7,19.5c0,0.1,0.4,0.2,0.6,0.3
		c0.1,0,0.3-0.1,0.3-0.1c0.1-11.5,0.3-23,0.3-34.5C351.6,430.6,350.3,430,349.3,429z"/>
	<path id="XMLID_301_" class="st6" d="M405.5,329.4c3.6,1.4,7.2,2.8,10.8,4.2c-2.6,19.9-13.1,34.6-29.4,45.6
		c-9.7,6.6-20,11.5-31.8,13.3c-7.3,1.1-10.2,4.4-11.3,11.8c-4.8,33.3-8.2,66.6-7,100.2c0.3,7.7,1,15.3,1.7,23
		c0.5,5.3,3.6,7.9,9.2,8.8c12.4,1.9,24.6,0.4,36.7-1.9c15.1-2.9,30-6.6,45.2-10c0,0.2,0.1,1.3,0.1,2.4c0.4,11.5,0.6,23,1.1,34.5
		c0.1,2.2-0.1,3.3-2.6,4.2c-31.6,10.7-64.1,16.2-97.6,14.5c-25-1.2-48.8-7.3-70.6-19.9c-1.2-0.7-2.6-2-2.8-3.2
		c-2.7-16-5.2-32-7.9-49.1c5,2.9,9,5.4,13.1,7.6c6,3.1,12.1,6.1,18.2,9.1c0.7,0.3,1.4,0.8,2.2,0.9c6.3,1,9.4,0.5,9.2-6.3
		c-0.4-13.7-0.9-27.4-0.9-41.1c0.2-29.6,3.4-59,10-87.9c1.1-4.6,0.5-8.6-3.3-12.3c-5.8-5.4-8.8-12.6-9.5-20.2
		c-0.4-4.5,1.4-9.1,2.3-14.1c7.8,3,14.3,5,18.7,11.9c5.7,9.1,15.7,12.5,26.3,13.1c17,0.9,32-4.5,44.3-16.1c3.7-3.5,6.3-8.1,9.4-12.1
		c0.6-1.3,1.2-2.5,1.7-3.8c0,0,0,0,0,0c1.4-1.7,3.5-3.2,4.1-5.1c0.9-3.1,1.9-4.1,4.8-3.1C401.8,328.9,403.7,329.1,405.5,329.4z"/>
	<path id="XMLID_294_" class="st7" d="M328.1,351.9c-11.5-1.8-21.7-6.5-31.1-12.8c-23.9-15.9-36-38.8-40.4-66.1
		c-4.5-28.1,2.4-53.7,17.2-77.7c2.1-3.3,4.2-6.4,8.5-7.4c5.7-1.4,9.9-5,13.7-9.2c3.2-3.6,6.2-7.3,9.5-10.7c6.5-6.7,9.3-7.2,17.4-2.6
		c6.3,3.6,12.5,3.9,19.1,1.2c2.3-0.9,4.6-1.9,6.9-2.6c3.8-1.2,7.7-1.6,11.4,0.4c-2.1,0.9-2.9,2.4-2.1,4.6c1.3,3.3,2.7,6.6,4,10
		c0.7,1.8,1.4,3.7,1.8,5.7c0.5,2,0.6,4,0.9,6c-1.2-0.8-2.3-1.6-3.6-2.5c-2.1,1.6-4.3,3.3-6.6,5.1c6.7,2.7,12.7,6,16.6,11.9
		c-0.2,2.5-0.9,5-0.7,7.5c0.8,7.6,2.3,15.1,2.8,22.8c0.5,6.7,0.1,13.6,0.1,20.3c0,1.1-0.1,2.3-0.2,3.4c-0.9,5.9-1.7,11.8-3,17.7
		c-0.8,3.9-0.6,8.3-4.3,11.2c-0.2-2.9,0.7-7.1-0.9-8.6c-5.7-5.4-12.2-9.8-18.4-14.6c-0.2,2.4,0.2,4.3,0.7,6.1
		c0.9,3.1,0.1,5.2-3.3,6.1c-4.4,1.2-8.8,2.5-13.1,3.9c-15.4,5-30.8,5-46.3,0.7c-6.9-1.9-7-1.9-8-9.1c0-0.1-0.4-0.2-0.9-0.5
		c-2.4,2.6-5,5.1-7.1,8c-1,1.4-1.9,3.9-1.3,5.2c2.1,4.8,4.9,9.3,7.7,14.5c1.1-2.8,1.8-4.6,2.6-6.8c4,2.4,7.4,4.4,10.9,6.4
		c14,8.2,28.6,10.4,43.7,3.3c7.2-3.4,14-7.3,21.2-10.8c1.8-0.9,4.1-0.9,6.4-1.4c0,3.2-0.3,5.4,0.1,7.6c0.2,0.9,1.6,1.6,2.5,2.4
		c-2.2,8.1-6,15.5-10.9,22.2c-4.5,6.2-9.9,11.9-14.8,17.8c-0.8,1-1.5,2.9-2.5,3c-4.3,0.6-4.4,5.2-7.4,6.9
		C327.1,350.1,327.7,351.3,328.1,351.9z M315.1,265.2c-1.9-2.7-3.4-5.2-5.2-7.6c-2.7-3.6-3-7-0.6-11c4.3-7.3,8.3-14.8,12.1-22.3
		c1.2-2.4,1.5-5.2,2.2-7.8c-0.4-0.2-0.7-0.3-1.1-0.5c-1.3,1.5-3,2.8-3.8,4.6c-5.1,9.9-11.9,18.7-19.6,26.7c-2.3,2.4-2.9,4.6-0.9,7.5
		c1.6,2.3,2.8,4.9,4.4,7.2C306.7,268,307.6,268.2,315.1,265.2z M370.5,238.6c3.4-9.2-1.2-17.7-10.1-19.1c-6.4-1-12.3,0.5-18.1,3.9
		c0.6,0.6,0.9,1.3,1.4,1.5C353.4,227.9,362.4,232.2,370.5,238.6z M278.4,225.8c1,3.3,1.4,6.1,2.6,8.4c1.6,3.1,4.5,3.2,7,0.6
		c3.7-3.9,4.6-13.2,1.7-17.7c-2.1-3.2-5-3.7-7.1-0.5C280.6,219.4,279.7,222.9,278.4,225.8z M299.2,311.8c3.8,5.7,12.7,8.4,18.3,5.5
		c1.1-0.6,2.4-2.8,2.1-3.8c-0.4-1.3-2.4-2.9-3.7-2.9C310.4,310.7,304.9,311.4,299.2,311.8z M295.2,192.5c-0.7-0.9-1.8-2.3-3-3.8
		c-5.2,2.6-10.5,4.5-13.3,9.9C284.3,196.6,289.6,194.6,295.2,192.5z"/>
	<path id="XMLID_293_" class="st4" d="M145.8,361c-1.6-7.5-3.2-14.9-4.9-22.8c8.4,1.4,16.2,2.7,24.1,4c20.8,3.5,41.6,4.1,62.6,2.2
		c16.3-1.5,32.6-2.7,48.9-3.9c2.8-0.2,5.6,0,9,0c-2.8,8.9-3.6,17.1-1.3,25.3c1.7,6.3,4.5,12,9.4,16.5c1.7,1.5,2.1,3,1.7,5.3
		c-2.6,14.5-5.4,28.9-7.2,43.5c-3,23.3-3.5,46.7-2.7,70.1c0.2,6.1,0,12.2,0,18.7c-5.4-2.6-11.2-5-16.7-8.1
		c-6.2-3.5-12.1-7.6-18-11.6c-1-0.7-1.9-2.2-1.9-3.5c-1.6-21.3-3.5-42.6-4.4-63.9c-0.5-12.9,0.7-25.8,1.1-38.7c0-0.9,0-1.8,0-2.9
		c-3.3,0.6-6.7,0.5-7.8,4.5c-3.4,0-6.8,0-10.2,0c-1.3,0-2.6,0-3.9,0c-5.5-0.8-11.1-1.5-16.6-2.3c-8.5-2.9-17.6-4.8-25.5-8.9
		c-10.8-5.6-20.8-12.9-31.1-19.5c-1-1-2.1-1.9-3.1-2.9C146.8,361.6,146.3,361.3,145.8,361z"/>
	<path id="XMLID_289_" class="st6" d="M328.1,351.9c-0.3-0.6-1-1.8-1-1.8c3-1.7,3.1-6.4,7.4-6.9c0.9-0.1,1.6-2,2.5-3
		c5-5.9,10.3-11.6,14.8-17.8c4.9-6.7,8.8-14.1,10.9-22.2c1.2-4.1,2.3-8.3,3.5-12.4c3.7-2.9,3.5-7.3,4.3-11.2c1.2-5.8,2-11.8,3-17.7
		c0.2-1.1,0.2-2.3,0.2-3.4c0-6.8,0.4-13.6-0.1-20.3c-0.6-7.6-2-15.2-2.8-22.8c-0.3-2.4,0.4-5,0.7-7.5c1.5,1.3,3.1,2.5,5.3,4.3
		c-0.4-2.1-0.6-3.5-1-4.8c-1.7-6-6-10.2-10.7-14c-0.3-2-0.5-4-0.9-6c-0.5-1.9-1.1-3.8-1.8-5.7c-1.3-3.3-2.7-6.6-4-10
		c-0.8-2.1,0-3.6,2.1-4.6c5.7,1.4,10.2,4.7,13.7,9c4.3,5.2,9.3,5.7,15.4,4.2c5.4-1.3,11-2.1,16.5-2.6c5.8-0.5,10.3,2.7,12.5,8
		c2,4.9,1,9.6-3.4,13.5c-1.7,1.5-3.7,2.7-5.6,4c-1,0-2.2-0.4-3,0c-1.1,0.5-1.9,1.6-2.8,2.5c1,0.7,1.9,1.4,2.9,2c0,0,0.2,0.2,0.2,0.2
		c0.2,1.2,0.4,2.5,0.6,3.7c-1,0.9-2.1,1.9-3.2,2.9c0.7,1.4,1.1,3.2,2.2,3.9c3.5,2.4,2.4,5.1,1.3,8c-2.2,3,0.3,4.9,2.2,6.3
		c9.4,6.7,15.1,16.2,20.7,25.9c-1.7,1.1-3.3,2.1-4.9,3.1c2.4,3.7,5.4,7.2,6.9,11.1c4,10.9-4.4,24.1-16.5,25.3
		c-6.2,0.6-9.6,3.2-12.9,7.9c-8.4,11.8-18.6,22.1-31.2,29.8c-1.6,1-2.9,2.4-4.3,3.6c0.1,0.4,0.3,0.8,0.4,1.1c3-0.5,6.1-0.7,9-1.5
		c2.9-0.8,5.7-2.1,9.3-3.5c-5.8,15.3-18.1,21.6-32.2,25.8c-3.1,0-6.1,0.2-9.1-0.1c-1.2-0.1-2.3-1.4-3.4-2.1c1.9-0.8,3.8-1.5,6.3-2.6
		C340.8,353.3,334.4,352.6,328.1,351.9z M421.8,254.3l0.1,0L421.8,254.3c-0.8-7.9-5.8-12.8-12.3-16.6c-0.8-0.4-2.5,0.6-3.7,1
		c0.9-0.4,1.8-0.8,2.6-1.3C412.9,243.1,417.3,248.7,421.8,254.3z M412.5,261.6c3.1-1.3,3.6-3.5,2.2-6c-1.6-2.9-3.2-6-7.2-6
		c-1.7,0-2.9,1.3-1.5,3.2C408.1,255.7,410.2,258.5,412.5,261.6z"/>
	<path id="XMLID_288_" class="st3" d="M451.6,524.8c10.2-6.6,20.7-12.8,30.6-19.8c9.8-6.8,19.7-13.7,28.4-21.8
		c12-11.1,21.5-24.1,26.7-39.7c1.1-3.3,1.7-6.8,2.5-10.3c4.6,6.6,9.9,13.1,8.5,21.9c-0.7,4.3-1.9,8.5-3.5,12.5
		c-7.3,18.5-16.4,36.1-26.7,53.2c-4.8,8-9.4,16.2-14.3,24.2c-0.7,1.2-2.2,2.7-3.4,2.7c-7.7,0-15.4,0.1-22.9-0.7
		c-6.4-0.7-11.6-4.4-15.8-9.2C458.2,533.6,455,529.2,451.6,524.8z"/>
	<path id="XMLID_287_" class="st8" d="M355.7,114.2c3.9-3.6,8.4-2.8,11.8-0.1c10,7.9,21.2,12.7,33.5,15.9c5.9,1.5,9.7,6.4,12.8,11.4
		c3.8,6.1,9,10.8,14,15.8c13,12.9,20.3,28.5,18.8,47.1c-0.9,11.4-3.4,22.5-8.4,33.4c-3-14.4-12.8-23.9-24.1-32.9
		c2.5-2.1,4.8-3.9,6.9-5.9c8.1-7.4,9.3-13.2,4.4-21.7c-4.3-7.5-12.7-10.8-22-8.4c-4.1,1.1-8.2,2.5-12.2,4.1c-5,2-8.9,1.4-12.2-3.1
		c-2.7-3.8-5.7-7.3-8.6-10.9c0.1-0.2,0.2-0.3,0.2-0.5c-0.2,0.1-0.4,0.2-0.6,0.3c0,0-0.2-0.2-0.1-0.2c0-6.1,0.8-12.3-0.2-18.2
		C368.3,130.2,362.7,121.7,355.7,114.2z"/>
	<path id="XMLID_286_" class="st9" d="M355.7,114.2c7,7.5,12.6,16,14.3,26.1c1,5.9,0.2,12.1,0.2,18.2c-11.3-8.4-11.4-8.9-24.1-1.4
		c-3.6,2.1-7.3,4.1-11.2,5.6c-1.9,0.7-4.4,0.2-6.6-0.2c-1.3-0.2-2.5-1.3-3.8-2c-8.6-4.8-14.1-4.3-21.2,2.6c-4.3,4.1-8.1,8.7-12.2,13
		c-4.2,4.4-8.9,7.9-15.3,8.4c-3.7,0.3-6.6-0.9-9.3-3.3c-9.4-8.5-10.9-27.5-2.9-37.2c0.6-0.8,1.3-1.6,2.4-3c1.2,7,4.9,10.8,11,12.4
		c6.7,1.7,12.4-0.2,17.4-4.6c4.2-3.8,8.3-7.8,12.5-11.7c6.6-6.3,13.8-8.4,22.8-4.6c7.7,3.2,9.6,2.2,14.8-4.6
		C348.2,123.3,352,118.8,355.7,114.2z"/>
	<path id="XMLID_285_" class="st3" d="M393.3,526.8c3.5-15.8,6.9-31.6,10.5-47.3c2.7-11.8,5.9-23.4,8.7-35.2
		c0.9-3.7,1.5-7.5,2.2-11.2c8.6,4.2,17.1,8.6,25.8,12.7c2.7,1.3,2.5,3.1,1.9,5.4c-2,7.9-4.3,15.8-5.8,23.8
		c-2.3,12-4.1,24.1-5.9,36.2c-0.5,3.5-1.4,5.7-5.4,6.7C414.7,520.6,404,523.8,393.3,526.8z"/>
	<path id="XMLID_284_" class="st10" d="M108.1,358.8c-2-2.2-4-4.4-5.9-6.6c0.1-0.3,0.1-0.6,0.3-0.7c10-8.9,8.8-25.2-3-32.5
		c-6.8-4.2-14.2-7.5-21.6-10.5c-4.3-1.7-7-4-8.3-8.1c0.8-1.3,1.3-2.9,2.4-3.9c3.8-3.5,7.7-7,11.9-9.9c2.8-1.9,5.1-5.1,9.2-4.6
		c0.2,10.9,5.6,18.7,14.5,25c11.4,8.1,18.6,19.2,21.9,32.6c1.8,7,0.2,13.7-3,20.1c-2.2,4.3-4.6,8.5-7.5,13.7
		c2.6-1.3,4.2-2.1,6.3-3.1c-0.6,11.7-3.2,22.2-10.8,31.1c-6.5,7.6-15.1,10.7-24.7,11.7c-8.7,0.9-17.2,0.3-25.7-1.9
		c-1.6-0.4-3.1-1.4-4.7-2.1c0.1-0.3,0.2-0.6,0.2-1c3.7,0,7.4,0.1,11.2,0c6.9-0.3,13.9-0.2,20.7-1.3c4.5-0.7,8.7-3.2,13-4.9
		c0.9-0.1,2.1,0.1,2.8-0.4c3-2.3,4.6-9.6,2.9-13.1c-1.2-2.6-2.5-5.2-3.8-7.8c0,0,0-0.1,0-0.1c0.5-0.6,0.9-1.1,1.4-1.7c0,0,0,0,0,0
		C114.5,375.3,114.7,363.1,108.1,358.8z"/>
	<path id="XMLID_280_" class="st11" d="M150.5,364.9c10.3,6.6,20.3,13.9,31.1,19.5c7.9,4.1,17,6,25.5,8.9c2,2.4,4,4.7,6,7.1
		c-0.6,1-1.3,2-2.2,3.4c1.6,0.4,2.8,0.7,4,1c1.6,0.5,3.1,1,4.7,1.5c0,0.6,0,1.1,0,1.7c0,0-0.3,0-0.3,0c-3.8,0.5-7.5,0.8-11.3,1.4
		c-5.7,0.8-11.4,1.7-17,2.7c-0.5,0.1-0.8,1.3-1.2,2.1c0,0,0,0,0,0c-0.3,0.1-0.5,0.1-0.8,0.2c-0.6,0.1-1.2,0.2-1.7,0.4
		c-2.9-0.2-5.8-0.5-8.7-0.5c-0.5,0-1,1.4-1.5,2.1c0,0-0.1,0-0.1,0c-1.3,0.2-2.5,0.4-3.8,0.6c-15.5,0.6-31,1.1-46.5,1.7
		c0-2.1-0.1-4.2-0.1-6.3c0,0,0,0,0,0c3.3,0.7,4.6-1.9,6.2-3.8c2.8-3.5,5.1-7.5,8.3-10.7c2.2-2.1,2.8-4.1,3.1-6.9
		c0.2-2.6,0.9-5.8,2.6-7.4c2.2-2.1,3.5-4,3.5-6.9C150.4,372.8,150.5,368.8,150.5,364.9z M190,409.9c-4.2,0-8.2,0-12.3,0
		c0,0.2,0,0.4,0,0.7c3.3,0.5,6.5,0.9,10.2,1.5c0.4-0.4,1.2-1.2,0.9-2.4c2.4-0.1,3.9-0.2,5.3-0.3c0.1-0.4,0.2-0.7,0.3-1.1
		c-1.1-0.6-2.1-1.5-3.3-1.6C190.7,406.6,190,408,190,409.9z M206.9,404.1c-0.4-0.3-0.7-0.6-0.9-0.6c-0.3,0-0.6,0.3-0.9,0.4
		c0.3,0.3,0.5,0.7,0.9,0.8C206.2,404.8,206.5,404.4,206.9,404.1z"/>
	<path id="XMLID_279_" class="st10" d="M448.8,535.4c9.4,12.8,21.4,21.1,38.4,21.1c-2.6,3.8-5.1,6.6-6.8,9.9
		c-5.8,10.8-2.2,14.9,7.1,21.7c0.7,0.5,2.6,0.1,3.3-0.6c1.2-1.1,2.7-2.7,2.6-4.1c-0.1-2.2-1.3-4.3-2.2-6.8c-2.2,1-4,1.8-5.8,2.6
		c-3.5-3-3.4-6.1-0.8-9.4c3-3.9,6.4-6.9,12-7.8c1.7,4.2,3.8,8.2,5.1,12.4c2.7,8.6-1.5,15.4-6.9,21.6c-0.6,0.7-2.1,1.1-3.2,1
		c-12.1-0.4-24.3-0.9-36.4-1.4c-4.2-0.2-7-2.3-8.5-6.2c-4.5-11.7-8.8-23.6-6.9-36.1c0.9-6.2,4.8-11.9,7.3-17.8
		C447.7,535.4,448.3,535.4,448.8,535.4z"/>
	<path id="XMLID_278_" class="st12" d="M102.3,337.2c-0.5,2.1-0.7,4.3-1.7,6.2c-1.4,2.7-3.6,4.2-7.1,3c-6.4-2.2-12.8-4.6-19.4-6
		c-11.4-2.4-22.7-0.2-33.9,1.9c-3.3,0.6-4.9-0.3-6.5-3c-5.6-9.4-4.4-17.9,3.5-23c1.8-1.1,4-1.9,6.1-2.3c17.9-3.1,35.2-2.1,50.7,8.6
		C99.4,326.2,102.4,330.8,102.3,337.2z"/>
	<path id="XMLID_277_" class="st12" d="M58.6,345.4c12.8,0.4,25,3,36.2,9.2c2.9,1.6,5.6,3.8,7.8,6.3c3.8,4.3,3.9,9.9,0.7,14.6
		c-0.6,0.9-2.4,1.7-3.5,1.6c-5.8-0.8-11.6-1.9-17.3-3.1c-12.8-2.8-25.6-3.7-38.6-1c-1.8,0.4-4.6-1-5.9-2.5
		c-4.7-5.5-5.2-12.1-2.7-18.4c0.8-2.1,4.1-4,6.6-4.5C47.4,346.3,53.1,346,58.6,345.4z"/>
	<path id="XMLID_276_" class="st7" d="M93.1,281.8c-4.1-0.5-6.4,2.7-9.2,4.6c-4.3,2.9-8.1,6.5-11.9,9.9c-1.1,1-1.6,2.6-2.4,3.9
		c-7.8-13.4-10.9-27.4-4.7-42.2c4.2-10.2,16.9-16.2,27.9-13.6c4.7,1.1,6.7,5,5.6,11c-1,5.5-2.3,11-3.4,16.5
		C94.3,275.3,93.7,278.6,93.1,281.8z"/>
	<path id="XMLID_275_" class="st12" d="M73.7,404.2c-8.1-1.6-16.5-2.5-24.4-4.9c-7.4-2.2-10.3-8.8-8.2-15.1c1.5-4.4,6-7.3,12.6-7.2
		c13.9,0.3,27.6,2.2,40.4,8c2.6,1.2,6.2,3.9,6.2,5.9c0,2.7-2.5,6.2-5,8C89,403.4,81.3,402.9,73.7,404.2z"/>
	<path id="XMLID_274_" class="st13" d="M451.8,451.1c8.7,2.8,16.6,5.4,25.2,8.2c-0.7,1.2-1.2,2.3-1.9,3.2
		c-12.6,18.4-22.6,38.1-31.5,58.4c-0.7,1.7-0.3,3.9-0.6,5.8c-0.4,2.4-1.1,4.8-2.2,7C437.1,505.3,445.4,478.5,451.8,451.1z"/>
	<path id="XMLID_273_" class="st14" d="M137.6,345.5c1.2,5.3,2.9,10.7,3.7,16.1c1.3,9,1.3,18.1-2.5,26.7
		c-5.4,12.5-13.8,22.7-26.1,29.2c-2.9,1.5-7.3,0.2-11.2-0.2c7.8-3.6,13.8-9,18.2-15.8c7.2-11,12.5-22.8,11-36.4
		c-0.1-0.8,0.2-1.8,0.5-2.6C133.3,356.9,135.4,351.4,137.6,345.5z"/>
	<path id="XMLID_270_" class="st15" d="M407.6,223.8c1.1-2.9,2.2-5.7-1.3-8c-1.1-0.7-1.4-2.5-2.2-3.9c1.1-1,2.2-1.9,3.2-2.9
		c-0.2-1.2-0.4-2.5-0.6-3.7c9.8,6.5,19.4,13.2,24.4,24.3c1.8,4,2.6,8.4,3.2,13c-6.8-12.3-13.6-24.4-26.5-31.7
		c-2,1.5-2.2,2.7-0.3,4.4c2.9,2.6,5.5,5.4,8.3,8.1c-1,0.2-2.1,0.4-3.1,0.5c0.1,0.4,0.2,0.8,0.3,1.2c1.1-0.4,2.3-0.8,3.4-1.2
		c0.5,0.5,1,1.1,1.5,1.6c-0.5,0.3-1.1,0.7-1.6,1c-0.3-0.2-0.6-0.4-0.9-0.6c0,0-0.1,0.2-0.2,0.3c0.3,0.1,0.7,0.2,1,0.3
		c0.9,0.8,1.8,1.6,3,2.6c-0.9,0.2-1.5,0.3-2.2,0.5c0,0,0,0,0,0c-0.3-0.2-0.5-0.5-0.8-0.7C413.3,227.2,410.5,225.5,407.6,223.8z
		 M409.5,209.2c0.1-0.2,0.2-0.5,0.2-0.6c-0.1-0.2-0.4-0.2-0.6-0.3c-0.1,0.2-0.2,0.4-0.1,0.5C409.1,209,409.3,209.1,409.5,209.2z"/>
	<path id="XMLID_269_" class="st16" d="M261,182c3.2,2.2,6.4,4.3,9.8,6.7c-3.2,5.4-6.3,10.7-9.4,16.1
		C256.3,198.4,254.2,186.6,261,182z"/>
	<path id="XMLID_268_" class="st17" d="M150.5,364.9c0,4,0,7.9,0,11.9c0,2.9-1.3,4.8-3.5,6.9c-1.7,1.6-2.4,4.8-2.6,7.4
		c-0.2,2.8-0.9,4.8-3.1,6.9c-3.2,3.1-5.5,7.2-8.3,10.7c-1.5,1.9-2.9,4.4-6.2,3.8c2.7-3.1,5.4-6.1,8-9.2c5.7-6.7,8.8-14.6,10.6-23
		c0.6-0.5,1.9-1,1.8-1.4c-1.1-5.6,2.6-11.2,0.2-16.8C148.4,362.9,149.4,363.9,150.5,364.9z"/>
	<path id="XMLID_267_" class="st11" d="M223.7,395.6c1.3,0,2.6,0,3.9,0c2,4,2.9,7.8-1.6,10.8l-0.2,0.1c0,0-0.2-0.1-0.2-0.1
		c-2,0-3.9-0.1-5.9-0.1c-1.6-0.5-3.1-1-4.7-1.5c1-0.5,2-1.4,3-1.5c2.3-0.2,4.7,0,7-0.1c0.8-0.1,1.6-0.8,2.4-1.3
		c-0.8-0.6-1.6-1.6-2.4-1.6c-2.3-0.2-4.8,0.2-7-0.2c-1.1-0.2-2-1.8-3-2.7c0.9-0.6,1.8-1.5,2.8-1.7
		C219.7,395.4,221.7,395.6,223.7,395.6z"/>
	<path id="XMLID_266_" class="st18" d="M417,229.6c0.7-0.1,1.3-0.3,2.2-0.5c-1.2-1-2.1-1.8-3-2.6l0.1,0c0.5-0.3,1.1-0.7,1.6-1
		c7.1,6.4,14.5,19.2,14.7,24.9C427.6,243.8,422.3,236.7,417,229.6z"/>
	<path id="XMLID_265_" class="st19" d="M225.9,406.4c4.5-3.1,3.6-6.9,1.6-10.8c3.4,0,6.8,0,10.2,0c0.2,7.3,0.2,7.3-7,9.4
		C229.1,405.5,227.5,406,225.9,406.4z"/>
	<path id="XMLID_264_" class="st18" d="M341.5,356.5c1.1,0.7,2.2,2,3.4,2.1c3,0.3,6.1,0.1,9.1,0.1c-7.7,2.8-15.5,3-23.4,0
		c1.8-0.3,3.5-0.6,5.3-1C337.8,357.4,339.7,356.9,341.5,356.5z"/>
	<path id="XMLID_263_" class="st20" d="M189.8,414.2c0.4-0.7,0.7-2,1.2-2.1c5.6-1,11.3-1.9,17-2.7c3.7-0.5,7.5-0.9,11.3-1.4
		c-7.5,1.7-15.1,3.5-22.6,5.2C194.5,413.8,192.2,413.9,189.8,414.2z"/>
	<path id="XMLID_262_" class="st21" d="M106.5,380.4c1.3,2.6,2.5,5.2,3.8,7.8c1.7,3.5,0.1,10.8-2.9,13.1c-0.6,0.5-1.8,0.3-2.8,0.4
		c5.8-6.4,6.2-10.2,2.1-17.8C106.1,382.9,106.5,381.6,106.5,380.4z"/>
	<path id="XMLID_261_" class="st2" d="M147.4,362c2.4,5.6-1.2,11.2-0.2,16.8c0.1,0.3-1.2,0.9-1.8,1.4c0.1-6.4,0.3-12.7,0.4-19.1
		C146.3,361.3,146.8,361.6,147.4,362z"/>
	<path id="XMLID_260_" class="st18" d="M405.5,329.4c-1.8-0.4-3.7-0.5-5.5-1.2c-2.9-1-4,0.1-4.8,3.1c-0.5,1.9-2.7,3.4-4.1,5.1
		c1.3-3.6,2.6-7.3,4.1-11.3C399,326.7,402.2,328.1,405.5,329.4z"/>
	<path id="XMLID_259_" class="st21" d="M108.1,358.8c6.5,4.3,6.4,16.6-0.3,19.9C112.4,372.1,113,365.5,108.1,358.8z"/>
	<path id="XMLID_258_" class="st22" d="M126.7,412.4c0,2.1,0.1,4.2,0.1,6.3c-2.1,0-4.3,0-6.4,0c-0.1-0.3-0.2-0.6-0.3-0.8
		C122.3,416.1,124.5,414.2,126.7,412.4z"/>
	<path id="XMLID_257_" class="st17" d="M480.1,370.9c-0.6,0.3-1.6,0.9-1.8,0.7c-2.9-2.8-5.7-5.6-8.5-8.5
		C473.3,365.8,476.7,368.4,480.1,370.9z"/>
	<path id="XMLID_256_" class="st20" d="M177.2,416.3c0.5-0.7,1-2.1,1.5-2.1c2.9,0,5.8,0.3,8.7,0.5
		C184,415.3,180.6,415.8,177.2,416.3z"/>
	<path id="XMLID_255_" class="st15" d="M406.6,205.1c-1-0.7-1.9-1.4-2.9-2c0.9-0.9,1.7-2,2.8-2.5c0.8-0.4,2-0.1,3,0
		C408.5,202,407.5,203.5,406.6,205.1z"/>
	<path id="XMLID_254_" class="st19" d="M219.7,406.4c2,0,3.9,0.1,5.9,0.1c-1.9,0.5-3.9,1-5.8,1.6C219.7,407.5,219.7,407,219.7,406.4
		z"/>
	<path id="XMLID_253_" class="st6" d="M416.4,223.9c-1.1,0.4-2.3,0.8-3.4,1.2c-0.1-0.4-0.2-0.8-0.3-1.2c1-0.2,2.1-0.4,3.1-0.5
		C416,223.5,416.2,223.7,416.4,223.9z"/>
	<path id="XMLID_252_" class="st17" d="M469.9,363.2c-1.9,0.3-3.6,0.4-3.2-2.3C467.7,361.7,468.8,362.4,469.9,363.2z"/>
	<path id="XMLID_251_" class="st18" d="M391.1,336.5c-0.6,1.3-1.2,2.5-1.7,3.8C389.9,339,390.5,337.7,391.1,336.5z"/>
	<path id="XMLID_250_" class="st20" d="M173.3,417c1.3-0.2,2.5-0.4,3.8-0.6C175.8,416.6,174.6,416.8,173.3,417z"/>
	<path id="XMLID_249_" class="st21" d="M107.9,378.6c-0.5,0.6-0.9,1.1-1.4,1.7C107,379.7,107.4,379.2,107.9,378.6z"/>
	<path id="XMLID_248_" class="st18" d="M416.2,228.8c0.3,0.2,0.5,0.5,0.8,0.7C416.8,229.3,416.5,229.1,416.2,228.8z"/>
	<path id="XMLID_247_" class="st20" d="M189.1,414.4c0.3-0.1,0.5-0.1,0.8-0.2C189.6,414.2,189.4,414.3,189.1,414.4z"/>
	<path id="XMLID_246_" class="st9" d="M370.3,158.6c0.2-0.1,0.4-0.2,0.6-0.3c-0.1,0.2-0.2,0.3-0.2,0.5
		C370.4,158.9,370.3,158.8,370.3,158.6z"/>
	<path id="XMLID_245_" class="st23" d="M359.1,589.1c-9.9,0-19.7,0-29.6,0c0-0.2,0-0.5,0-0.7c9.9,0,19.7,0,29.6,0
		C359.1,588.6,359.1,588.9,359.1,589.1z"/>
	<path id="XMLID_244_" class="st23" d="M341.3,640.5c3.8,0,7.7,0,11.5,0c0,0.3,0,0.5,0,0.8c-3.8,0-7.7,0-11.5,0
		C341.3,641,341.3,640.7,341.3,640.5z"/>
	<path id="XMLID_243_" class="st23" d="M349.3,429c1.1,1,2.4,1.6,2.4,2.2c0,11.5-0.1,23-0.3,34.5c0,0-0.2,0.1-0.3,0.1
		c-0.2-0.1-0.6-0.2-0.6-0.3c-0.6-6.5-1.4-13-1.7-19.5c-0.1-2.1,1.3-4.3,1.4-6.5C350.2,436.5,349.6,433.4,349.3,429z"/>
	<path id="XMLID_240_" class="st24" d="M366.2,287.8c-1.2,4.1-2.3,8.3-3.5,12.4c-0.9-0.8-2.3-1.5-2.5-2.4c-0.4-2.1-0.1-4.3-0.1-7.6
		c-2.3,0.5-4.6,0.5-6.4,1.4c-7.1,3.5-14,7.5-21.2,10.8c-15.1,7.1-29.7,4.9-43.7-3.3c-3.5-2-6.9-4.1-10.9-6.4c-0.8,2.2-1.5,4-2.6,6.8
		c-2.8-5.2-5.6-9.7-7.7-14.5c-0.6-1.3,0.3-3.8,1.3-5.2c2.1-2.9,4.7-5.4,7.1-8c0.5,0.3,0.9,0.3,0.9,0.5c1,7.2,1,7.1,8,9.1
		c15.5,4.4,30.9,4.3,46.3-0.7c4.3-1.4,8.7-2.7,13.1-3.9c3.4-0.9,4.2-3,3.3-6.1c-0.5-1.8-0.9-3.7-0.7-6.1c6.2,4.8,12.8,9.3,18.4,14.6
		C367,280.8,366,284.9,366.2,287.8z M357.2,284.4c-3.5-3.8-6.6-4.7-11.1-3.5c-9.8,2.8-19.6,5.4-29.6,6.9
		c-12.2,1.8-24.1-1.3-36.1-3.5c-1.3-0.2-2.8,0.7-4.2,1c0.8,1.4,1.2,3.4,2.5,4.2c3,1.8,6.4,2.9,9.6,4.3c11.6,5,23.7,8.2,36.2,4.7
		c9.9-2.8,19.3-7.5,28.9-11.4C354.7,286.5,355.9,285.3,357.2,284.4z"/>
	<path id="XMLID_239_" class="st24" d="M315.1,265.2c-7.5,2.9-8.5,2.7-12.5-3.1c-1.6-2.3-2.8-4.9-4.4-7.2c-2-2.9-1.3-5.2,0.9-7.5
		c7.7-8.1,14.5-16.8,19.6-26.7c0.9-1.7,2.5-3.1,3.8-4.6c0.4,0.2,0.7,0.3,1.1,0.5c-0.7,2.6-1,5.4-2.2,7.8c-3.8,7.5-7.8,15-12.1,22.3
		c-2.4,4-2.1,7.4,0.6,11C311.7,260,313.3,262.5,315.1,265.2z"/>
	<path id="XMLID_238_" class="st25" d="M370.5,238.6c-8-6.4-17-10.7-26.7-13.7c-0.5-0.2-0.8-0.8-1.4-1.5c5.8-3.4,11.7-4.9,18.1-3.9
		C369.2,220.9,373.9,229.5,370.5,238.6z"/>
	<path id="XMLID_237_" class="st25" d="M278.4,225.8c1.3-2.9,2.2-6.3,4.1-9.2c2.1-3.2,5-2.7,7.1,0.5c2.9,4.5,2,13.8-1.7,17.7
		c-2.5,2.5-5.3,2.5-7-0.6C279.8,231.8,279.4,229.1,278.4,225.8z"/>
	<path id="XMLID_236_" class="st26" d="M365.1,190.5c4.7,3.8,9,8,10.7,14c0.4,1.3,0.6,2.7,1,4.8c-2.2-1.8-3.7-3-5.3-4.3
		c-4-5.9-9.9-9.2-16.6-11.9c2.3-1.8,4.4-3.4,6.6-5.1C362.7,188.9,363.9,189.7,365.1,190.5z"/>
	<path id="XMLID_235_" class="st26" d="M299.2,311.8c5.7-0.5,11.2-1.1,16.7-1.2c1.3,0,3.3,1.6,3.7,2.9c0.3,1-0.9,3.2-2.1,3.8
		C311.9,320.3,303,317.6,299.2,311.8z"/>
	<path id="XMLID_234_" class="st27" d="M295.2,192.5c-5.5,2.1-10.9,4.1-16.3,6.1c2.8-5.4,8.2-7.3,13.3-9.9
		C293.3,190.2,294.4,191.6,295.2,192.5z"/>
	<path id="XMLID_233_" class="st19" d="M223.7,395.6c-2,0-3.9-0.2-5.9,0.1c-1,0.1-1.9,1.1-2.8,1.7c1,1,1.8,2.5,3,2.7
		c2.3,0.4,4.7,0,7,0.2c0.9,0.1,1.6,1.1,2.4,1.6c-0.8,0.4-1.6,1.2-2.4,1.3c-2.3,0.2-4.7-0.1-7,0.1c-1.1,0.1-2,1-3,1.5
		c-1.2-0.3-2.4-0.6-4-1c0.9-1.4,1.6-2.4,2.2-3.4c-2-2.4-4-4.8-6-7.1C212.6,394.1,218.1,394.9,223.7,395.6z"/>
	<path id="XMLID_232_" class="st26" d="M421.8,254.3c-4.5-5.6-8.9-11.2-13.4-16.9c-0.9,0.4-1.8,0.8-2.6,1.3c1.3-0.4,3-1.4,3.7-1
		C415.9,241.5,421,246.4,421.8,254.3L421.8,254.3z"/>
	<path id="XMLID_231_" class="st26" d="M412.5,261.6c-2.3-3.1-4.5-5.9-6.5-8.8c-1.4-1.9-0.2-3.2,1.5-3.2c4,0,5.6,3.1,7.2,6
		C416.1,258.2,415.6,260.3,412.5,261.6z"/>
	<path id="XMLID_230_" class="st26" d="M421.7,254.2l0.1,0.1C421.9,254.3,421.8,254.3,421.7,254.2
		C421.8,254.3,421.7,254.2,421.7,254.2z"/>
	<path id="XMLID_229_" class="st20" d="M190,409.9c-0.9,0.9-1.7,1.7-2,2.2c-3.7-0.5-7-1-10.2-1.5c0-0.2,0-0.4,0-0.7
		C181.7,409.9,185.7,409.9,190,409.9z"/>
	<path id="XMLID_228_" class="st20" d="M188.8,409.6c1.2-1.6,1.9-3,2.4-3c1.1,0.1,2.2,1,3.3,1.6c-0.1,0.4-0.2,0.7-0.3,1.1
		C192.7,409.4,191.2,409.5,188.8,409.6z"/>
	<path id="XMLID_227_" class="st19" d="M214.9,404.9c1.6,0.5,3.1,1,4.7,1.5C218.1,405.9,216.5,405.4,214.9,404.9z"/>
	<path id="XMLID_226_" class="st19" d="M206.9,404.1c-0.4,0.3-0.8,0.7-1,0.6c-0.4-0.1-0.6-0.5-0.9-0.8c0.3-0.1,0.6-0.4,0.9-0.4
		C206.3,403.5,206.5,403.8,206.9,404.1z"/>
	<path id="XMLID_225_" class="st6" d="M409.5,209.2c-0.2-0.1-0.5-0.2-0.6-0.3c-0.1-0.1,0.1-0.4,0.1-0.5c0.2,0.1,0.5,0.1,0.6,0.3
		C409.7,208.7,409.6,209,409.5,209.2z"/>
	<path id="XMLID_224_" class="st6" d="M416.2,226.6c-0.3-0.1-0.7-0.2-1-0.3c0.1-0.1,0.2-0.3,0.2-0.3
		C415.7,226.1,416,226.3,416.2,226.6C416.3,226.5,416.2,226.6,416.2,226.6z"/>
	<path id="XMLID_223_" class="st28" d="M357.2,284.4c-1.3,0.9-2.4,2.1-3.8,2.7c-9.6,3.9-19,8.6-28.9,11.4
		c-12.4,3.5-24.6,0.3-36.2-4.7c-3.2-1.4-6.6-2.5-9.6-4.3c-1.2-0.7-1.7-2.7-2.5-4.2c1.4-0.4,2.9-1.3,4.2-1
		c11.9,2.2,23.9,5.4,36.1,3.5c10-1.5,19.9-4.1,29.6-6.9C350.6,279.6,353.6,280.6,357.2,284.4z"/>
</g>
</svg>
